<svg width="406" height="228" viewBox="0 0 406 228" fill="none" xmlns="http://www.w3.org/2000/svg"><path d="M0 15C0 6.71573 6.71573 0 15 0H391C399.284 0 406 6.71573 406 15V213C406 221.284 399.284 228 391 228H15C6.71573 228 0 221.284 0 213V15Z" fill="#44474E"/><path d="M37 54C37 45.7157 43.7157 39 52 39H354C362.284 39 369 45.7157 369 54V174C369 182.284 362.284 189 354 189H52C43.7157 189 37 182.284 37 174V54Z" fill="white"/><path d="M52.416 50V60.72H54.816V62H48.544V60.72H50.944V51.552L48.336 52.848L47.712 51.6L50.944 50H52.416ZM59.3503 62L57.6863 60.24V51.76L59.3503 50H63.8623L65.5263 51.76V60.24L63.8623 62H59.3503ZM59.9743 60.624H63.2223L64.1343 59.696V52.304L63.2383 51.376H59.9903L59.0783 52.304V59.696L59.9743 60.624ZM60.8063 55.04H62.4063V56.96H60.8063V55.04ZM73.2285 50V60.72H75.6285V62H69.3565V60.72H71.7565V51.552L69.1485 52.848L68.5245 51.6L71.7565 50H73.2285ZM83.6348 50V60.72H86.0347V62H79.7628V60.72H82.1628V51.552L79.5548 52.848L78.9308 51.6L82.1628 50H83.6348ZM90.569 62L88.905 60.24V51.76L90.569 50H95.081L96.745 51.76V60.24L95.081 62H90.569ZM91.193 60.624H94.441L95.353 59.696V52.304L94.457 51.376H91.209L90.297 52.304V59.696L91.193 60.624ZM92.025 55.04H93.625V56.96H92.025V55.04ZM104.447 50V60.72H106.847V62H100.575V60.72H102.975V51.552L100.367 52.848L99.7433 51.6L102.975 50H104.447ZM111.382 62L109.718 60.24V51.76L111.382 50H115.894L117.558 51.76V60.24L115.894 62H111.382ZM112.006 60.624H115.254L116.166 59.696V52.304L115.27 51.376H112.022L111.11 52.304V59.696L112.006 60.624ZM112.838 55.04H114.438V56.96H112.838V55.04ZM121.788 62L120.124 60.24V51.76L121.788 50H126.3L127.964 51.76V60.24L126.3 62H121.788ZM122.412 60.624H125.66L126.572 59.696V52.304L125.676 51.376H122.428L121.516 52.304V59.696L122.412 60.624ZM123.244 55.04H124.844V56.96H123.244V55.04ZM132.194 62L130.53 60.24V51.76L132.194 50H136.706L138.37 51.76V60.24L136.706 62H132.194ZM132.818 60.624H136.066L136.978 59.696V52.304L136.082 51.376H132.834L131.922 52.304V59.696L132.818 60.624ZM133.65 55.04H135.25V56.96H133.65V55.04ZM146.072 50V60.72H148.472V62H142.2V60.72H144.6V51.552L141.992 52.848L141.368 51.6L144.6 50H146.072ZM156.479 50V60.72H158.878V62H152.607V60.72H155.007V51.552L152.399 52.848L151.775 51.6L155.007 50H156.479ZM163.413 62L161.749 60.24V51.76L163.413 50H167.925L169.589 51.76V60.24L167.925 62H163.413ZM164.037 60.624H167.285L168.197 59.696V52.304L167.301 51.376H164.053L163.141 52.304V59.696L164.037 60.624ZM164.869 55.04H166.469V56.96H164.869V55.04ZM173.819 62L172.155 60.24V51.76L173.819 50H178.331L179.995 51.76V60.24L178.331 62H173.819ZM174.443 60.624H177.691L178.603 59.696V52.304L177.707 51.376H174.459L173.547 52.304V59.696L174.443 60.624ZM175.275 55.04H176.875V56.96H175.275V55.04ZM187.697 50V60.72H190.097V62H183.825V60.72H186.225V51.552L183.617 52.848L182.993 51.6L186.225 50H187.697ZM198.104 50V60.72H200.503V62H194.232V60.72H196.632V51.552L194.024 52.848L193.4 51.6L196.632 50H198.104ZM205.038 62L203.374 60.24V51.76L205.038 50H209.55L211.214 51.76V60.24L209.55 62H205.038ZM205.662 60.624H208.91L209.822 59.696V52.304L208.926 51.376H205.678L204.766 52.304V59.696L205.662 60.624ZM206.494 55.04H208.094V56.96H206.494V55.04ZM218.916 50V60.72H221.316V62H215.044V60.72H217.444V51.552L214.836 52.848L214.212 51.6L217.444 50H218.916ZM225.85 62L224.186 60.24V51.76L225.85 50H230.362L232.026 51.76V60.24L230.362 62H225.85ZM226.474 60.624H229.722L230.634 59.696V52.304L229.738 51.376H226.49L225.578 52.304V59.696L226.474 60.624ZM227.306 55.04H228.906V56.96H227.306V55.04ZM239.729 50V60.72H242.128V62H235.857V60.72H238.257V51.552L235.649 52.848L235.025 51.6L238.257 50H239.729ZM246.663 62L244.999 60.24V51.76L246.663 50H251.175L252.839 51.76V60.24L251.175 62H246.663ZM247.287 60.624H250.535L251.447 59.696V52.304L250.551 51.376H247.303L246.391 52.304V59.696L247.287 60.624ZM248.119 55.04H249.719V56.96H248.119V55.04ZM260.541 50V60.72H262.941V62H256.669V60.72H259.069V51.552L256.461 52.848L255.837 51.6L259.069 50H260.541ZM267.475 62L265.811 60.24V51.76L267.475 50H271.987L273.651 51.76V60.24L271.987 62H267.475ZM268.099 60.624H271.347L272.259 59.696V52.304L271.363 51.376H268.115L267.203 52.304V59.696L268.099 60.624ZM268.931 55.04H270.531V56.96H268.931V55.04ZM281.354 50V60.72H283.753V62H277.482V60.72H279.882V51.552L277.274 52.848L276.65 51.6L279.882 50H281.354ZM288.288 62L286.624 60.24V51.76L288.288 50H292.8L294.464 51.76V60.24L292.8 62H288.288ZM288.912 60.624H292.16L293.072 59.696V52.304L292.176 51.376H288.928L288.016 52.304V59.696L288.912 60.624ZM289.744 55.04H291.344V56.96H289.744V55.04ZM302.166 50V60.72H304.566V62H298.294V60.72H300.694V51.552L298.086 52.848L297.462 51.6L300.694 50H302.166ZM312.572 50V60.72H314.972V62H308.7V60.72H311.1V51.552L308.492 52.848L307.868 51.6L311.1 50H312.572ZM322.979 50V60.72H325.378V62H319.107V60.72H321.507V51.552L318.899 52.848L318.275 51.6L321.507 50H322.979ZM333.385 50V60.72H335.785V62H329.513V60.72H331.913V51.552L329.305 52.848L328.681 51.6L331.913 50H333.385ZM340.319 62L338.655 60.24V51.76L340.319 50H344.831L346.495 51.76V60.24L344.831 62H340.319ZM340.943 60.624H344.191L345.103 59.696V52.304L344.207 51.376H340.959L340.047 52.304V59.696L340.943 60.624ZM341.775 55.04H343.375V56.96H341.775V55.04ZM354.197 50V60.72H356.597V62H350.325V60.72H352.725V51.552L350.117 52.848L349.493 51.6L352.725 50H354.197ZM48.944 86L47.28 84.24V75.76L48.944 74H53.456L55.12 75.76V84.24L53.456 86H48.944ZM49.568 84.624H52.816L53.728 83.696V76.304L52.832 75.376H49.584L48.672 76.304V83.696L49.568 84.624ZM50.4 79.04H52V80.96H50.4V79.04ZM59.3503 86L57.6863 84.24V75.76L59.3503 74H63.8623L65.5263 75.76V84.24L63.8623 86H59.3503ZM59.9743 84.624H63.2223L64.1343 83.696V76.304L63.2383 75.376H59.9903L59.0783 76.304V83.696L59.9743 84.624ZM60.8063 79.04H62.4063V80.96H60.8063V79.04ZM73.2285 74V84.72H75.6285V86H69.3565V84.72H71.7565V75.552L69.1485 76.848L68.5245 75.6L71.7565 74H73.2285ZM80.1628 86L78.4988 84.24V75.76L80.1628 74H84.6748L86.3388 75.76V84.24L84.6748 86H80.1628ZM80.7868 84.624H84.0348L84.9468 83.696V76.304L84.0508 75.376H80.8028L79.8908 76.304V83.696L80.7868 84.624ZM81.6188 79.04H83.2188V80.96H81.6188V79.04ZM90.569 86L88.905 84.24V75.76L90.569 74H95.081L96.745 75.76V84.24L95.081 86H90.569ZM91.193 84.624H94.441L95.353 83.696V76.304L94.457 75.376H91.209L90.297 76.304V83.696L91.193 84.624ZM92.025 79.04H93.625V80.96H92.025V79.04ZM104.447 74V84.72H106.847V86H100.575V84.72H102.975V75.552L100.367 76.848L99.7433 75.6L102.975 74H104.447ZM111.382 86L109.718 84.24V75.76L111.382 74H115.894L117.558 75.76V84.24L115.894 86H111.382ZM112.006 84.624H115.254L116.166 83.696V76.304L115.27 75.376H112.022L111.11 76.304V83.696L112.006 84.624ZM112.838 79.04H114.438V80.96H112.838V79.04ZM121.788 86L120.124 84.24V75.76L121.788 74H126.3L127.964 75.76V84.24L126.3 86H121.788ZM122.412 84.624H125.66L126.572 83.696V76.304L125.676 75.376H122.428L121.516 76.304V83.696L122.412 84.624ZM123.244 79.04H124.844V80.96H123.244V79.04ZM135.666 74V84.72H138.066V86H131.794V84.72H134.194V75.552L131.586 76.848L130.962 75.6L134.194 74H135.666ZM146.072 74V84.72H148.472V86H142.2V84.72H144.6V75.552L141.992 76.848L141.368 75.6L144.6 74H146.072ZM153.007 86L151.343 84.24V75.76L153.007 74H157.519L159.183 75.76V84.24L157.519 86H153.007ZM153.631 84.624H156.879L157.791 83.696V76.304L156.895 75.376H153.647L152.735 76.304V83.696L153.631 84.624ZM154.463 79.04H156.063V80.96H154.463V79.04ZM166.885 74V84.72H169.285V86H163.013V84.72H165.413V75.552L162.805 76.848L162.181 75.6L165.413 74H166.885ZM173.819 86L172.155 84.24V75.76L173.819 74H178.331L179.995 75.76V84.24L178.331 86H173.819ZM174.443 84.624H177.691L178.603 83.696V76.304L177.707 75.376H174.459L173.547 76.304V83.696L174.443 84.624ZM175.275 79.04H176.875V80.96H175.275V79.04ZM187.697 74V84.72H190.097V86H183.825V84.72H186.225V75.552L183.617 76.848L182.993 75.6L186.225 74H187.697ZM198.104 74V84.72H200.503V86H194.232V84.72H196.632V75.552L194.024 76.848L193.4 75.6L196.632 74H198.104ZM208.51 74V84.72H210.91V86H204.638V84.72H207.038V75.552L204.43 76.848L203.806 75.6L207.038 74H208.51ZM218.916 74V84.72H221.316V86H215.044V84.72H217.444V75.552L214.836 76.848L214.212 75.6L217.444 74H218.916ZM225.85 86L224.186 84.24V75.76L225.85 74H230.362L232.026 75.76V84.24L230.362 86H225.85ZM226.474 84.624H229.722L230.634 83.696V76.304L229.738 75.376H226.49L225.578 76.304V83.696L226.474 84.624ZM227.306 79.04H228.906V80.96H227.306V79.04ZM239.729 74V84.72H242.128V86H235.857V84.72H238.257V75.552L235.649 76.848L235.025 75.6L238.257 74H239.729ZM250.135 74V84.72H252.535V86H246.263V84.72H248.663V75.552L246.055 76.848L245.431 75.6L248.663 74H250.135ZM257.069 86L255.405 84.24V75.76L257.069 74H261.581L263.245 75.76V84.24L261.581 86H257.069ZM257.693 84.624H260.941L261.853 83.696V76.304L260.957 75.376H257.709L256.797 76.304V83.696L257.693 84.624ZM258.525 79.04H260.125V80.96H258.525V79.04ZM270.947 74V84.72H273.347V86H267.075V84.72H269.475V75.552L266.867 76.848L266.243 75.6L269.475 74H270.947ZM277.882 86L276.218 84.24V75.76L277.882 74H282.394L284.058 75.76V84.24L282.394 86H277.882ZM278.506 84.624H281.754L282.666 83.696V76.304L281.77 75.376H278.522L277.61 76.304V83.696L278.506 84.624ZM279.338 79.04H280.938V80.96H279.338V79.04ZM288.288 86L286.624 84.24V75.76L288.288 74H292.8L294.464 75.76V84.24L292.8 86H288.288ZM288.912 84.624H292.16L293.072 83.696V76.304L292.176 75.376H288.928L288.016 76.304V83.696L288.912 84.624ZM289.744 79.04H291.344V80.96H289.744V79.04ZM298.694 86L297.03 84.24V75.76L298.694 74H303.206L304.87 75.76V84.24L303.206 86H298.694ZM299.318 84.624H302.566L303.478 83.696V76.304L302.582 75.376H299.334L298.422 76.304V83.696L299.318 84.624ZM300.15 79.04H301.75V80.96H300.15V79.04ZM312.572 74V84.72H314.972V86H308.7V84.72H311.1V75.552L308.492 76.848L307.868 75.6L311.1 74H312.572ZM322.979 74V84.72H325.378V86H319.107V84.72H321.507V75.552L318.899 76.848L318.275 75.6L321.507 74H322.979ZM329.913 86L328.249 84.24V75.76L329.913 74H334.425L336.089 75.76V84.24L334.425 86H329.913ZM330.537 84.624H333.785L334.697 83.696V76.304L333.801 75.376H330.553L329.641 76.304V83.696L330.537 84.624ZM331.369 79.04H332.969V80.96H331.369V79.04ZM340.319 86L338.655 84.24V75.76L340.319 74H344.831L346.495 75.76V84.24L344.831 86H340.319ZM340.943 84.624H344.191L345.103 83.696V76.304L344.207 75.376H340.959L340.047 76.304V83.696L340.943 84.624ZM341.775 79.04H343.375V80.96H341.775V79.04ZM354.197 74V84.72H356.597V86H350.325V84.72H352.725V75.552L350.117 76.848L349.493 75.6L352.725 74H354.197ZM52.416 98V108.72H54.816V110H48.544V108.72H50.944V99.552L48.336 100.848L47.712 99.6L50.944 98H52.416ZM59.3503 110L57.6863 108.24V99.76L59.3503 98H63.8623L65.5263 99.76V108.24L63.8623 110H59.3503ZM59.9743 108.624H63.2223L64.1343 107.696V100.304L63.2383 99.376H59.9903L59.0783 100.304V107.696L59.9743 108.624ZM60.8063 103.04H62.4063V104.96H60.8063V103.04ZM73.2285 98V108.72H75.6285V110H69.3565V108.72H71.7565V99.552L69.1485 100.848L68.5245 99.6L71.7565 98H73.2285ZM80.1628 110L78.4988 108.24V99.76L80.1628 98H84.6748L86.3388 99.76V108.24L84.6748 110H80.1628ZM80.7868 108.624H84.0348L84.9468 107.696V100.304L84.0508 99.376H80.8028L79.8908 100.304V107.696L80.7868 108.624ZM81.6188 103.04H83.2188V104.96H81.6188V103.04ZM94.041 98V108.72H96.441V110H90.169V108.72H92.569V99.552L89.961 100.848L89.337 99.6L92.569 98H94.041ZM100.975 110L99.3113 108.24V99.76L100.975 98H105.487L107.151 99.76V108.24L105.487 110H100.975ZM101.599 108.624H104.847L105.759 107.696V100.304L104.863 99.376H101.615L100.703 100.304V107.696L101.599 108.624ZM102.431 103.04H104.031V104.96H102.431V103.04ZM114.854 98V108.72H117.253V110H110.982V108.72H113.382V99.552L110.774 100.848L110.15 99.6L113.382 98H114.854ZM121.788 110L120.124 108.24V99.76L121.788 98H126.3L127.964 99.76V108.24L126.3 110H121.788ZM122.412 108.624H125.66L126.572 107.696V100.304L125.676 99.376H122.428L121.516 100.304V107.696L122.412 108.624ZM123.244 103.04H124.844V104.96H123.244V103.04ZM135.666 98V108.72H138.066V110H131.794V108.72H134.194V99.552L131.586 100.848L130.962 99.6L134.194 98H135.666ZM142.6 110L140.936 108.24V99.76L142.6 98H147.112L148.776 99.76V108.24L147.112 110H142.6ZM143.224 108.624H146.472L147.384 107.696V100.304L146.488 99.376H143.24L142.328 100.304V107.696L143.224 108.624ZM144.056 103.04H145.656V104.96H144.056V103.04ZM156.479 98V108.72H158.878V110H152.607V108.72H155.007V99.552L152.399 100.848L151.775 99.6L155.007 98H156.479ZM166.885 98V108.72H169.285V110H163.013V108.72H165.413V99.552L162.805 100.848L162.181 99.6L165.413 98H166.885ZM177.291 98V108.72H179.691V110H173.419V108.72H175.819V99.552L173.211 100.848L172.587 99.6L175.819 98H177.291ZM187.697 98V108.72H190.097V110H183.825V108.72H186.225V99.552L183.617 100.848L182.993 99.6L186.225 98H187.697ZM194.632 110L192.968 108.24V99.76L194.632 98H199.144L200.808 99.76V108.24L199.144 110H194.632ZM195.256 108.624H198.504L199.416 107.696V100.304L198.52 99.376H195.272L194.36 100.304V107.696L195.256 108.624ZM196.088 103.04H197.688V104.96H196.088V103.04ZM208.51 98V108.72H210.91V110H204.638V108.72H207.038V99.552L204.43 100.848L203.806 99.6L207.038 98H208.51ZM215.444 110L213.78 108.24V99.76L215.444 98H219.956L221.62 99.76V108.24L219.956 110H215.444ZM216.068 108.624H219.316L220.228 107.696V100.304L219.332 99.376H216.084L215.172 100.304V107.696L216.068 108.624ZM216.9 103.04H218.5V104.96H216.9V103.04ZM225.85 110L224.186 108.24V99.76L225.85 98H230.362L232.026 99.76V108.24L230.362 110H225.85ZM226.474 108.624H229.722L230.634 107.696V100.304L229.738 99.376H226.49L225.578 100.304V107.696L226.474 108.624ZM227.306 103.04H228.906V104.96H227.306V103.04ZM239.729 98V108.72H242.128V110H235.857V108.72H238.257V99.552L235.649 100.848L235.025 99.6L238.257 98H239.729ZM246.663 110L244.999 108.24V99.76L246.663 98H251.175L252.839 99.76V108.24L251.175 110H246.663ZM247.287 108.624H250.535L251.447 107.696V100.304L250.551 99.376H247.303L246.391 100.304V107.696L247.287 108.624ZM248.119 103.04H249.719V104.96H248.119V103.04ZM257.069 110L255.405 108.24V99.76L257.069 98H261.581L263.245 99.76V108.24L261.581 110H257.069ZM257.693 108.624H260.941L261.853 107.696V100.304L260.957 99.376H257.709L256.797 100.304V107.696L257.693 108.624ZM258.525 103.04H260.125V104.96H258.525V103.04ZM270.947 98V108.72H273.347V110H267.075V108.72H269.475V99.552L266.867 100.848L266.243 99.6L269.475 98H270.947ZM277.882 110L276.218 108.24V99.76L277.882 98H282.394L284.058 99.76V108.24L282.394 110H277.882ZM278.506 108.624H281.754L282.666 107.696V100.304L281.77 99.376H278.522L277.61 100.304V107.696L278.506 108.624ZM279.338 103.04H280.938V104.96H279.338V103.04ZM288.288 110L286.624 108.24V99.76L288.288 98H292.8L294.464 99.76V108.24L292.8 110H288.288ZM288.912 108.624H292.16L293.072 107.696V100.304L292.176 99.376H288.928L288.016 100.304V107.696L288.912 108.624ZM289.744 103.04H291.344V104.96H289.744V103.04ZM302.166 98V108.72H304.566V110H298.294V108.72H300.694V99.552L298.086 100.848L297.462 99.6L300.694 98H302.166ZM312.572 98V108.72H314.972V110H308.7V108.72H311.1V99.552L308.492 100.848L307.868 99.6L311.1 98H312.572ZM319.507 110L317.843 108.24V99.76L319.507 98H324.019L325.683 99.76V108.24L324.019 110H319.507ZM320.131 108.624H323.379L324.291 107.696V100.304L323.395 99.376H320.147L319.235 100.304V107.696L320.131 108.624ZM320.963 103.04H322.563V104.96H320.963V103.04ZM333.385 98V108.72H335.785V110H329.513V108.72H331.913V99.552L329.305 100.848L328.681 99.6L331.913 98H333.385ZM340.319 110L338.655 108.24V99.76L340.319 98H344.831L346.495 99.76V108.24L344.831 110H340.319ZM340.943 108.624H344.191L345.103 107.696V100.304L344.207 99.376H340.959L340.047 100.304V107.696L340.943 108.624ZM341.775 103.04H343.375V104.96H341.775V103.04ZM354.197 98V108.72H356.597V110H350.325V108.72H352.725V99.552L350.117 100.848L349.493 99.6L352.725 98H354.197ZM52.416 122V132.72H54.816V134H48.544V132.72H50.944V123.552L48.336 124.848L47.712 123.6L50.944 122H52.416ZM62.8223 122V132.72H65.2222V134H58.9503V132.72H61.3503V123.552L58.7423 124.848L58.1183 123.6L61.3503 122H62.8223ZM73.2285 122V132.72H75.6285V134H69.3565V132.72H71.7565V123.552L69.1485 124.848L68.5245 123.6L71.7565 122H73.2285ZM80.1628 134L78.4988 132.24V123.76L80.1628 122H84.6748L86.3388 123.76V132.24L84.6748 134H80.1628ZM80.7868 132.624H84.0348L84.9468 131.696V124.304L84.0508 123.376H80.8028L79.8908 124.304V131.696L80.7868 132.624ZM81.6188 127.04H83.2188V128.96H81.6188V127.04ZM94.041 122V132.72H96.441V134H90.169V132.72H92.569V123.552L89.961 124.848L89.337 123.6L92.569 122H94.041ZM104.447 122V132.72H106.847V134H100.575V132.72H102.975V123.552L100.367 124.848L99.7433 123.6L102.975 122H104.447ZM111.382 134L109.718 132.24V123.76L111.382 122H115.894L117.558 123.76V132.24L115.894 134H111.382ZM112.006 132.624H115.254L116.166 131.696V124.304L115.27 123.376H112.022L111.11 124.304V131.696L112.006 132.624ZM112.838 127.04H114.438V128.96H112.838V127.04ZM125.26 122V132.72H127.66V134H121.388V132.72H123.788V123.552L121.18 124.848L120.556 123.6L123.788 122H125.26ZM132.194 134L130.53 132.24V123.76L132.194 122H136.706L138.37 123.76V132.24L136.706 134H132.194ZM132.818 132.624H136.066L136.978 131.696V124.304L136.082 123.376H132.834L131.922 124.304V131.696L132.818 132.624ZM133.65 127.04H135.25V128.96H133.65V127.04ZM142.6 134L140.936 132.24V123.76L142.6 122H147.112L148.776 123.76V132.24L147.112 134H142.6ZM143.224 132.624H146.472L147.384 131.696V124.304L146.488 123.376H143.24L142.328 124.304V131.696L143.224 132.624ZM144.056 127.04H145.656V128.96H144.056V127.04ZM153.007 134L151.343 132.24V123.76L153.007 122H157.519L159.183 123.76V132.24L157.519 134H153.007ZM153.631 132.624H156.879L157.791 131.696V124.304L156.895 123.376H153.647L152.735 124.304V131.696L153.631 132.624ZM154.463 127.04H156.063V128.96H154.463V127.04ZM166.885 122V132.72H169.285V134H163.013V132.72H165.413V123.552L162.805 124.848L162.181 123.6L165.413 122H166.885ZM177.291 122V132.72H179.691V134H173.419V132.72H175.819V123.552L173.211 124.848L172.587 123.6L175.819 122H177.291ZM184.225 134L182.561 132.24V123.76L184.225 122H188.737L190.401 123.76V132.24L188.737 134H184.225ZM184.849 132.624H188.097L189.009 131.696V124.304L188.113 123.376H184.865L183.953 124.304V131.696L184.849 132.624ZM185.681 127.04H187.281V128.96H185.681V127.04ZM194.632 134L192.968 132.24V123.76L194.632 122H199.144L200.808 123.76V132.24L199.144 134H194.632ZM195.256 132.624H198.504L199.416 131.696V124.304L198.52 123.376H195.272L194.36 124.304V131.696L195.256 132.624ZM196.088 127.04H197.688V128.96H196.088V127.04ZM208.51 122V132.72H210.91V134H204.638V132.72H207.038V123.552L204.43 124.848L203.806 123.6L207.038 122H208.51ZM218.916 122V132.72H221.316V134H215.044V132.72H217.444V123.552L214.836 124.848L214.212 123.6L217.444 122H218.916ZM225.85 134L224.186 132.24V123.76L225.85 122H230.362L232.026 123.76V132.24L230.362 134H225.85ZM226.474 132.624H229.722L230.634 131.696V124.304L229.738 123.376H226.49L225.578 124.304V131.696L226.474 132.624ZM227.306 127.04H228.906V128.96H227.306V127.04ZM239.729 122V132.72H242.128V134H235.857V132.72H238.257V123.552L235.649 124.848L235.025 123.6L238.257 122H239.729ZM246.663 134L244.999 132.24V123.76L246.663 122H251.175L252.839 123.76V132.24L251.175 134H246.663ZM247.287 132.624H250.535L251.447 131.696V124.304L250.551 123.376H247.303L246.391 124.304V131.696L247.287 132.624ZM248.119 127.04H249.719V128.96H248.119V127.04ZM260.541 122V132.72H262.941V134H256.669V132.72H259.069V123.552L256.461 124.848L255.837 123.6L259.069 122H260.541ZM267.475 134L265.811 132.24V123.76L267.475 122H271.987L273.651 123.76V132.24L271.987 134H267.475ZM268.099 132.624H271.347L272.259 131.696V124.304L271.363 123.376H268.115L267.203 124.304V131.696L268.099 132.624ZM268.931 127.04H270.531V128.96H268.931V127.04ZM281.354 122V132.72H283.753V134H277.482V132.72H279.882V123.552L277.274 124.848L276.65 123.6L279.882 122H281.354ZM288.288 134L286.624 132.24V123.76L288.288 122H292.8L294.464 123.76V132.24L292.8 134H288.288ZM288.912 132.624H292.16L293.072 131.696V124.304L292.176 123.376H288.928L288.016 124.304V131.696L288.912 132.624ZM289.744 127.04H291.344V128.96H289.744V127.04ZM302.166 122V132.72H304.566V134H298.294V132.72H300.694V123.552L298.086 124.848L297.462 123.6L300.694 122H302.166ZM309.1 134L307.436 132.24V123.76L309.1 122H313.612L315.276 123.76V132.24L313.612 134H309.1ZM309.724 132.624H312.972L313.884 131.696V124.304L312.988 123.376H309.74L308.828 124.304V131.696L309.724 132.624ZM310.556 127.04H312.156V128.96H310.556V127.04ZM322.979 122V132.72H325.378V134H319.107V132.72H321.507V123.552L318.899 124.848L318.275 123.6L321.507 122H322.979ZM333.385 122V132.72H335.785V134H329.513V132.72H331.913V123.552L329.305 124.848L328.681 123.6L331.913 122H333.385ZM343.791 122V132.72H346.191V134H339.919V132.72H342.319V123.552L339.711 124.848L339.087 123.6L342.319 122H343.791ZM354.197 122V132.72H356.597V134H350.325V132.72H352.725V123.552L350.117 124.848L349.493 123.6L352.725 122H354.197ZM48.944 158L47.28 156.24V147.76L48.944 146H53.456L55.12 147.76V156.24L53.456 158H48.944ZM49.568 156.624H52.816L53.728 155.696V148.304L52.832 147.376H49.584L48.672 148.304V155.696L49.568 156.624ZM50.4 151.04H52V152.96H50.4V151.04ZM62.8223 146V156.72H65.2222V158H58.9503V156.72H61.3503V147.552L58.7423 148.848L58.1183 147.6L61.3503 146H62.8223ZM69.7565 158L68.0925 156.24V147.76L69.7565 146H74.2685L75.9325 147.76V156.24L74.2685 158H69.7565ZM70.3805 156.624H73.6285L74.5405 155.696V148.304L73.6445 147.376H70.3965L69.4845 148.304V155.696L70.3805 156.624ZM71.2125 151.04H72.8125V152.96H71.2125V151.04ZM80.1628 158L78.4988 156.24V147.76L80.1628 146H84.6748L86.3388 147.76V156.24L84.6748 158H80.1628ZM80.7868 156.624H84.0348L84.9468 155.696V148.304L84.0508 147.376H80.8028L79.8908 148.304V155.696L80.7868 156.624ZM81.6188 151.04H83.2188V152.96H81.6188V151.04ZM94.041 146V156.72H96.441V158H90.169V156.72H92.569V147.552L89.961 148.848L89.337 147.6L92.569 146H94.041ZM100.975 158L99.3113 156.24V147.76L100.975 146H105.487L107.151 147.76V156.24L105.487 158H100.975ZM101.599 156.624H104.847L105.759 155.696V148.304L104.863 147.376H101.615L100.703 148.304V155.696L101.599 156.624ZM102.431 151.04H104.031V152.96H102.431V151.04ZM111.382 158L109.718 156.24V147.76L111.382 146H115.894L117.558 147.76V156.24L115.894 158H111.382ZM112.006 156.624H115.254L116.166 155.696V148.304L115.27 147.376H112.022L111.11 148.304V155.696L112.006 156.624ZM112.838 151.04H114.438V152.96H112.838V151.04ZM125.26 146V156.72H127.66V158H121.388V156.72H123.788V147.552L121.18 148.848L120.556 147.6L123.788 146H125.26ZM132.194 158L130.53 156.24V147.76L132.194 146H136.706L138.37 147.76V156.24L136.706 158H132.194ZM132.818 156.624H136.066L136.978 155.696V148.304L136.082 147.376H132.834L131.922 148.304V155.696L132.818 156.624ZM133.65 151.04H135.25V152.96H133.65V151.04ZM142.6 158L140.936 156.24V147.76L142.6 146H147.112L148.776 147.76V156.24L147.112 158H142.6ZM143.224 156.624H146.472L147.384 155.696V148.304L146.488 147.376H143.24L142.328 148.304V155.696L143.224 156.624ZM144.056 151.04H145.656V152.96H144.056V151.04ZM156.479 146V156.72H158.878V158H152.607V156.72H155.007V147.552L152.399 148.848L151.775 147.6L155.007 146H156.479ZM166.885 146V156.72H169.285V158H163.013V156.72H165.413V147.552L162.805 148.848L162.181 147.6L165.413 146H166.885ZM173.819 158L172.155 156.24V147.76L173.819 146H178.331L179.995 147.76V156.24L178.331 158H173.819ZM174.443 156.624H177.691L178.603 155.696V148.304L177.707 147.376H174.459L173.547 148.304V155.696L174.443 156.624ZM175.275 151.04H176.875V152.96H175.275V151.04ZM187.697 146V156.72H190.097V158H183.825V156.72H186.225V147.552L183.617 148.848L182.993 147.6L186.225 146H187.697ZM194.632 158L192.968 156.24V147.76L194.632 146H199.144L200.808 147.76V156.24L199.144 158H194.632ZM195.256 156.624H198.504L199.416 155.696V148.304L198.52 147.376H195.272L194.36 148.304V155.696L195.256 156.624ZM196.088 151.04H197.688V152.96H196.088V151.04ZM208.51 146V156.72H210.91V158H204.638V156.72H207.038V147.552L204.43 148.848L203.806 147.6L207.038 146H208.51ZM218.916 146V156.72H221.316V158H215.044V156.72H217.444V147.552L214.836 148.848L214.212 147.6L217.444 146H218.916ZM229.322 146V156.72H231.722V158H225.45V156.72H227.85V147.552L225.242 148.848L224.618 147.6L227.85 146H229.322ZM239.729 146V156.72H242.128V158H235.857V156.72H238.257V147.552L235.649 148.848L235.025 147.6L238.257 146H239.729ZM246.663 158L244.999 156.24V147.76L246.663 146H251.175L252.839 147.76V156.24L251.175 158H246.663ZM247.287 156.624H250.535L251.447 155.696V148.304L250.551 147.376H247.303L246.391 148.304V155.696L247.287 156.624ZM248.119 151.04H249.719V152.96H248.119V151.04ZM260.541 146V156.72H262.941V158H256.669V156.72H259.069V147.552L256.461 148.848L255.837 147.6L259.069 146H260.541ZM270.947 146V156.72H273.347V158H267.075V156.72H269.475V147.552L266.867 148.848L266.243 147.6L269.475 146H270.947ZM277.882 158L276.218 156.24V147.76L277.882 146H282.394L284.058 147.76V156.24L282.394 158H277.882ZM278.506 156.624H281.754L282.666 155.696V148.304L281.77 147.376H278.522L277.61 148.304V155.696L278.506 156.624ZM279.338 151.04H280.938V152.96H279.338V151.04ZM291.76 146V156.72H294.16V158H287.888V156.72H290.288V147.552L287.68 148.848L287.056 147.6L290.288 146H291.76ZM298.694 158L297.03 156.24V147.76L298.694 146H303.206L304.87 147.76V156.24L303.206 158H298.694ZM299.318 156.624H302.566L303.478 155.696V148.304L302.582 147.376H299.334L298.422 148.304V155.696L299.318 156.624ZM300.15 151.04H301.75V152.96H300.15V151.04ZM309.1 158L307.436 156.24V147.76L309.1 146H313.612L315.276 147.76V156.24L313.612 158H309.1ZM309.724 156.624H312.972L313.884 155.696V148.304L312.988 147.376H309.74L308.828 148.304V155.696L309.724 156.624ZM310.556 151.04H312.156V152.96H310.556V151.04ZM319.507 158L317.843 156.24V147.76L319.507 146H324.019L325.683 147.76V156.24L324.019 158H319.507ZM320.131 156.624H323.379L324.291 155.696V148.304L323.395 147.376H320.147L319.235 148.304V155.696L320.131 156.624ZM320.963 151.04H322.563V152.96H320.963V151.04ZM333.385 146V156.72H335.785V158H329.513V156.72H331.913V147.552L329.305 148.848L328.681 147.6L331.913 146H333.385ZM343.791 146V156.72H346.191V158H339.919V156.72H342.319V147.552L339.711 148.848L339.087 147.6L342.319 146H343.791ZM350.725 158L349.061 156.24V147.76L350.725 146H355.237L356.901 147.76V156.24L355.237 158H350.725ZM351.349 156.624H354.597L355.509 155.696V148.304L354.613 147.376H351.365L350.453 148.304V155.696L351.349 156.624ZM352.181 151.04H353.781V152.96H352.181V151.04ZM48.944 182L47.28 180.24V171.76L48.944 170H53.456L55.12 171.76V180.24L53.456 182H48.944ZM49.568 180.624H52.816L53.728 179.696V172.304L52.832 171.376H49.584L48.672 172.304V179.696L49.568 180.624ZM50.4 175.04H52V176.96H50.4V175.04ZM62.8223 170V180.72H65.2222V182H58.9503V180.72H61.3503V171.552L58.7423 172.848L58.1183 171.6L61.3503 170H62.8223ZM73.2285 170V180.72H75.6285V182H69.3565V180.72H71.7565V171.552L69.1485 172.848L68.5245 171.6L71.7565 170H73.2285ZM80.1628 182L78.4988 180.24V171.76L80.1628 170H84.6748L86.3388 171.76V180.24L84.6748 182H80.1628ZM80.7868 180.624H84.0348L84.9468 179.696V172.304L84.0508 171.376H80.8028L79.8908 172.304V179.696L80.7868 180.624ZM81.6188 175.04H83.2188V176.96H81.6188V175.04ZM94.041 170V180.72H96.441V182H90.169V180.72H92.569V171.552L89.961 172.848L89.337 171.6L92.569 170H94.041ZM100.975 182L99.3113 180.24V171.76L100.975 170H105.487L107.151 171.76V180.24L105.487 182H100.975ZM101.599 180.624H104.847L105.759 179.696V172.304L104.863 171.376H101.615L100.703 172.304V179.696L101.599 180.624ZM102.431 175.04H104.031V176.96H102.431V175.04ZM114.854 170V180.72H117.253V182H110.982V180.72H113.382V171.552L110.774 172.848L110.15 171.6L113.382 170H114.854ZM121.788 182L120.124 180.24V171.76L121.788 170H126.3L127.964 171.76V180.24L126.3 182H121.788ZM122.412 180.624H125.66L126.572 179.696V172.304L125.676 171.376H122.428L121.516 172.304V179.696L122.412 180.624ZM123.244 175.04H124.844V176.96H123.244V175.04ZM135.666 170V180.72H138.066V182H131.794V180.72H134.194V171.552L131.586 172.848L130.962 171.6L134.194 170H135.666ZM142.6 182L140.936 180.24V171.76L142.6 170H147.112L148.776 171.76V180.24L147.112 182H142.6ZM143.224 180.624H146.472L147.384 179.696V172.304L146.488 171.376H143.24L142.328 172.304V179.696L143.224 180.624ZM144.056 175.04H145.656V176.96H144.056V175.04ZM156.479 170V180.72H158.878V182H152.607V180.72H155.007V171.552L152.399 172.848L151.775 171.6L155.007 170H156.479ZM163.413 182L161.749 180.24V171.76L163.413 170H167.925L169.589 171.76V180.24L167.925 182H163.413ZM164.037 180.624H167.285L168.197 179.696V172.304L167.301 171.376H164.053L163.141 172.304V179.696L164.037 180.624ZM164.869 175.04H166.469V176.96H164.869V175.04ZM177.291 170V180.72H179.691V182H173.419V180.72H175.819V171.552L173.211 172.848L172.587 171.6L175.819 170H177.291ZM187.697 170V180.72H190.097V182H183.825V180.72H186.225V171.552L183.617 172.848L182.993 171.6L186.225 170H187.697ZM198.104 170V180.72H200.503V182H194.232V180.72H196.632V171.552L194.024 172.848L193.4 171.6L196.632 170H198.104ZM208.51 170V180.72H210.91V182H204.638V180.72H207.038V171.552L204.43 172.848L203.806 171.6L207.038 170H208.51ZM215.444 182L213.78 180.24V171.76L215.444 170H219.956L221.62 171.76V180.24L219.956 182H215.444ZM216.068 180.624H219.316L220.228 179.696V172.304L219.332 171.376H216.084L215.172 172.304V179.696L216.068 180.624ZM216.9 175.04H218.5V176.96H216.9V175.04ZM229.322 170V180.72H231.722V182H225.45V180.72H227.85V171.552L225.242 172.848L224.618 171.6L227.85 170H229.322ZM236.257 182L234.593 180.24V171.76L236.257 170H240.769L242.433 171.76V180.24L240.769 182H236.257ZM236.881 180.624H240.129L241.041 179.696V172.304L240.145 171.376H236.897L235.985 172.304V179.696L236.881 180.624ZM237.713 175.04H239.313V176.96H237.713V175.04ZM246.663 182L244.999 180.24V171.76L246.663 170H251.175L252.839 171.76V180.24L251.175 182H246.663ZM247.287 180.624H250.535L251.447 179.696V172.304L250.551 171.376H247.303L246.391 172.304V179.696L247.287 180.624ZM248.119 175.04H249.719V176.96H248.119V175.04ZM260.541 170V180.72H262.941V182H256.669V180.72H259.069V171.552L256.461 172.848L255.837 171.6L259.069 170H260.541ZM267.475 182L265.811 180.24V171.76L267.475 170H271.987L273.651 171.76V180.24L271.987 182H267.475ZM268.099 180.624H271.347L272.259 179.696V172.304L271.363 171.376H268.115L267.203 172.304V179.696L268.099 180.624ZM268.931 175.04H270.531V176.96H268.931V175.04ZM277.882 182L276.218 180.24V171.76L277.882 170H282.394L284.058 171.76V180.24L282.394 182H277.882ZM278.506 180.624H281.754L282.666 179.696V172.304L281.77 171.376H278.522L277.61 172.304V179.696L278.506 180.624ZM279.338 175.04H280.938V176.96H279.338V175.04ZM291.76 170V180.72H294.16V182H287.888V180.72H290.288V171.552L287.68 172.848L287.056 171.6L290.288 170H291.76ZM298.694 182L297.03 180.24V171.76L298.694 170H303.206L304.87 171.76V180.24L303.206 182H298.694ZM299.318 180.624H302.566L303.478 179.696V172.304L302.582 171.376H299.334L298.422 172.304V179.696L299.318 180.624ZM300.15 175.04H301.75V176.96H300.15V175.04ZM309.1 182L307.436 180.24V171.76L309.1 170H313.612L315.276 171.76V180.24L313.612 182H309.1ZM309.724 180.624H312.972L313.884 179.696V172.304L312.988 171.376H309.74L308.828 172.304V179.696L309.724 180.624ZM310.556 175.04H312.156V176.96H310.556V175.04ZM322.979 170V180.72H325.378V182H319.107V180.72H321.507V171.552L318.899 172.848L318.275 171.6L321.507 170H322.979ZM333.385 170V180.72H335.785V182H329.513V180.72H331.913V171.552L329.305 172.848L328.681 171.6L331.913 170H333.385ZM340.319 182L338.655 180.24V171.76L340.319 170H344.831L346.495 171.76V180.24L344.831 182H340.319ZM340.943 180.624H344.191L345.103 179.696V172.304L344.207 171.376H340.959L340.047 172.304V179.696L340.943 180.624ZM341.775 175.04H343.375V176.96H341.775V175.04ZM354.197 170V180.72H356.597V182H350.325V180.72H352.725V171.552L350.117 172.848L349.493 171.6L352.725 170H354.197Z" fill="#E8E8E9"/><g filter="url(#filter0_dd_24704_5618)"><path d="M176.861 117.48C176.861 120.983 179.701 123.823 183.204 123.823H224.9C228.403 123.823 231.243 120.983 231.243 117.48V90.0324C231.243 75.0153 219.069 62.8415 204.052 62.8415C189.035 62.8415 176.861 75.0153 176.861 90.0325V117.48Z" stroke="black" stroke-width="17.683"/><path d="M165.977 162.023V113.231L204.052 86.2414L242.128 113.231V162.023H165.977Z" fill="#B6C8DE" stroke="#B6C8DE" stroke-width="7.95356"/><path d="M196.754 120.954C196.754 116.923 200.022 113.656 204.052 113.656C208.083 113.656 211.351 116.923 211.351 120.954V140.43C211.351 144.461 208.083 147.728 204.052 147.728C200.022 147.728 196.754 144.461 196.754 140.43V120.954Z" fill="black"/></g><defs><filter id="filter0_dd_24704_5618" x="159" y="52" width="90.1055" height="118" filterUnits="userSpaceOnUse" color-interpolation-filters="sRGB"><feFlood flood-opacity="0" result="BackgroundImageFix"/><feColorMatrix in="SourceAlpha" type="matrix" values="0 0 0 0 0 0 0 0 0 0 0 0 0 0 0 0 0 0 127 0" result="hardAlpha"/><feOffset dy="1"/><feGaussianBlur stdDeviation="1.5"/><feColorMatrix type="matrix" values="0 0 0 0 0.219608 0 0 0 0 0.235294 0 0 0 0 0.262745 0 0 0 0.15 0"/><feBlend mode="normal" in2="BackgroundImageFix" result="effect1_dropShadow_24704_5618"/><feColorMatrix in="SourceAlpha" type="matrix" values="0 0 0 0 0 0 0 0 0 0 0 0 0 0 0 0 0 0 127 0" result="hardAlpha"/><feMorphology radius="1" operator="dilate" in="SourceAlpha" result="effect2_dropShadow_24704_5618"/><feOffset/><feColorMatrix type="matrix" values="0 0 0 0 0.219608 0 0 0 0 0.235294 0 0 0 0 0.262745 0 0 0 0.05 0"/><feBlend mode="normal" in2="effect1_dropShadow_24704_5618" result="effect2_dropShadow_24704_5618"/><feBlend mode="normal" in="SourceGraphic" in2="effect2_dropShadow_24704_5618" result="shape"/></filter></defs></svg>