<svg width="406" height="228" viewBox="0 0 406 228" fill="none" xmlns="http://www.w3.org/2000/svg"><path d="M0 15C0 6.71573 6.71573 0 15 0H391C399.284 0 406 6.71573 406 15V213C406 221.284 399.284 228 391 228H15C6.71573 228 0 221.284 0 213V15Z" fill="#44474E"/><path d="M37 54C37 45.7157 43.7157 39 52 39H354C362.284 39 369 45.7157 369 54V174C369 182.284 362.284 189 354 189H52C43.7157 189 37 182.284 37 174V54Z" fill="white"/><path d="M51.7363 78L47.7031 67.4336H50.5352L52.8594 74.8848L53.0059 75.627L53.1523 74.8848L55.4668 67.4336H58.2988L54.2852 78H51.7363ZM80.4777 78H77.7434L73.7883 68.8301V78H71.0246V63.7812H73.7883L77.7141 72.9121L77.7238 63.7812H80.4777V78ZM87.5926 64.8457V67.4336H91.5379V69.4355H87.5926V73.9766C87.5926 74.3607 87.6349 74.6829 87.7195 74.9434C87.8107 75.1973 87.9376 75.3991 88.1004 75.5488C88.2632 75.7051 88.4585 75.8158 88.6863 75.8809C88.9207 75.946 89.1811 75.9785 89.4676 75.9785C89.6759 75.9785 89.8875 75.9688 90.1023 75.9492C90.3237 75.9297 90.5353 75.9036 90.7371 75.8711C90.9324 75.8451 91.1147 75.8158 91.284 75.7832C91.4598 75.7507 91.6095 75.7181 91.7332 75.6855L91.9969 77.5508C91.8081 77.6615 91.5867 77.7591 91.3328 77.8438C91.0789 77.9219 90.8087 77.987 90.5223 78.0391C90.2358 78.0911 89.9363 78.1302 89.6238 78.1562C89.3178 78.1888 89.0151 78.2051 88.7156 78.2051C88.1362 78.2051 87.6089 78.1302 87.1336 77.9805C86.6648 77.8242 86.2645 77.5833 85.9324 77.2578C85.5939 76.9388 85.3335 76.5319 85.1512 76.0371C84.9689 75.5358 84.8777 74.9368 84.8777 74.2402V69.4355H82.4656V67.4336H84.8777V64.8457H87.5926ZM100.918 78L100.762 76.5156C100.404 77.043 99.9711 77.4564 99.4633 77.7559C98.962 78.0553 98.4118 78.2051 97.8129 78.2051C97.266 78.2051 96.7647 78.1204 96.309 77.9512C95.8533 77.7819 95.4626 77.5117 95.1371 77.1406C94.8116 76.776 94.5577 76.3105 94.3754 75.7441C94.1996 75.1712 94.1117 74.4844 94.1117 73.6836V67.4336H96.8266V73.7031C96.8266 74.1328 96.8559 74.4941 96.9145 74.7871C96.9796 75.0801 97.0805 75.3145 97.2172 75.4902C97.3539 75.6725 97.5329 75.8027 97.7543 75.8809C97.9756 75.959 98.2458 75.998 98.5648 75.998C98.8513 75.998 99.1085 75.9688 99.3363 75.9102C99.5707 75.8516 99.7758 75.7669 99.9516 75.6562C100.101 75.5586 100.235 75.4414 100.352 75.3047C100.469 75.168 100.57 75.015 100.655 74.8457V67.4336H103.379V78H100.918ZM113.023 67.2383C113.434 67.2383 113.811 67.2676 114.156 67.3262C114.508 67.3783 114.791 67.4368 115.006 67.502L114.605 70.207C114.247 70.1224 113.88 70.0605 113.502 70.0215C113.131 69.9759 112.776 69.9531 112.438 69.9531C112.086 69.9531 111.767 69.9857 111.48 70.0508C111.201 70.1094 110.95 70.2005 110.729 70.3242C110.462 70.4674 110.234 70.6497 110.045 70.8711C109.856 71.0924 109.7 71.3529 109.576 71.6523V78H106.861V67.4336H109.391L109.498 68.9277L109.518 69.1621C109.947 68.5632 110.462 68.0944 111.061 67.7559C111.66 67.4108 112.314 67.2383 113.023 67.2383ZM142.386 68.8887C142.522 68.6868 142.672 68.5013 142.835 68.332C143.004 68.1562 143.18 68.0033 143.362 67.873C143.642 67.6712 143.951 67.515 144.29 67.4043C144.628 67.2936 144.986 67.2383 145.364 67.2383C145.917 67.2383 146.425 67.3229 146.887 67.4922C147.35 67.6549 147.747 67.9121 148.079 68.2637C148.411 68.6152 148.668 69.0677 148.85 69.6211C149.039 70.168 149.134 70.8288 149.134 71.6035V78H146.419V71.584C146.419 71.2064 146.37 70.8809 146.272 70.6074C146.181 70.334 146.048 70.1126 145.872 69.9434C145.696 69.7741 145.485 69.6504 145.237 69.5723C144.99 69.4876 144.71 69.4453 144.397 69.4453C144.156 69.4453 143.932 69.4681 143.723 69.5137C143.515 69.5592 143.326 69.6276 143.157 69.7188C143.001 69.7969 142.858 69.8913 142.727 70.002C142.604 70.1126 142.49 70.2363 142.386 70.373V78H139.671V63H142.386V68.8887ZM162.211 72.6387C162.211 71.8379 162.302 71.1055 162.484 70.4414C162.673 69.7773 162.947 69.2077 163.305 68.7324C163.663 68.2572 164.096 67.8893 164.604 67.6289C165.118 67.3685 165.704 67.2383 166.361 67.2383C166.915 67.2383 167.4 67.3392 167.816 67.541C168.24 67.7363 168.614 68.0163 168.939 68.3809V63H171.664V78H169.213L169.076 76.8965C168.744 77.3066 168.354 77.6257 167.904 77.8535C167.455 78.0814 166.934 78.1953 166.342 78.1953C165.697 78.1953 165.118 78.0618 164.604 77.7949C164.096 77.5215 163.666 77.1471 163.314 76.6719C162.956 76.1966 162.683 75.6335 162.494 74.9824C162.305 74.3249 162.211 73.612 162.211 72.8438V72.6387ZM164.926 72.8438C164.926 73.2865 164.962 73.6999 165.033 74.084C165.111 74.4616 165.235 74.7904 165.404 75.0703C165.574 75.3568 165.792 75.5814 166.059 75.7441C166.326 75.9069 166.651 75.9883 167.035 75.9883C167.504 75.9883 167.891 75.8874 168.197 75.6855C168.51 75.4837 168.757 75.207 168.939 74.8555V70.5781C168.757 70.2201 168.513 69.9434 168.207 69.748C167.901 69.5462 167.517 69.4453 167.055 69.4453C166.671 69.4453 166.342 69.5299 166.068 69.6992C165.801 69.862 165.583 70.0866 165.414 70.373C165.245 70.666 165.121 71.0078 165.043 71.3984C164.965 71.7826 164.926 72.196 164.926 72.6387V72.8438ZM183.584 76.3398C183.408 76.5547 183.167 76.7728 182.861 76.9941C182.555 77.2155 182.194 77.4141 181.777 77.5898C181.354 77.7721 180.882 77.9186 180.361 78.0293C179.84 78.14 179.28 78.1953 178.681 78.1953C178.16 78.1953 177.669 78.1335 177.207 78.0098C176.751 77.8926 176.331 77.7201 175.947 77.4922C175.569 77.2578 175.224 76.9714 174.912 76.6328C174.606 76.2943 174.345 75.9069 174.13 75.4707C173.883 74.9889 173.694 74.4453 173.564 73.8398C173.44 73.2344 173.379 72.5768 173.379 71.8672V69.9336C173.379 69.2565 173.44 68.6283 173.564 68.0488C173.688 67.4629 173.864 66.9323 174.091 66.457C174.306 66.0339 174.554 65.653 174.834 65.3145C175.12 64.9759 175.433 64.6829 175.771 64.4355C176.168 64.1556 176.601 63.944 177.07 63.8008C177.539 63.6576 178.033 63.5859 178.554 63.5859C179.355 63.5859 180.052 63.6868 180.644 63.8887C181.243 64.0905 181.748 64.3802 182.158 64.7578C182.568 65.1419 182.887 65.6074 183.115 66.1543C183.349 66.7012 183.502 67.3164 183.574 68H180.898C180.852 67.6549 180.781 67.349 180.683 67.082C180.592 66.8151 180.465 66.5905 180.302 66.4082C180.12 66.2064 179.889 66.0566 179.609 65.959C179.336 65.8548 179.007 65.8027 178.623 65.8027C178.414 65.8027 178.213 65.8353 178.017 65.9004C177.822 65.9655 177.64 66.0599 177.47 66.1836C177.249 66.3529 177.047 66.5742 176.865 66.8477C176.689 67.1211 176.543 67.4434 176.425 67.8145C176.334 68.1009 176.263 68.4199 176.211 68.7715C176.165 69.123 176.142 69.5039 176.142 69.9141V71.8672C176.142 72.3815 176.175 72.8503 176.24 73.2734C176.311 73.6966 176.409 74.071 176.533 74.3965C176.611 74.5853 176.699 74.7611 176.796 74.9238C176.901 75.0801 177.015 75.2201 177.138 75.3438C177.347 75.5521 177.588 75.7116 177.861 75.8223C178.141 75.9264 178.457 75.9818 178.808 75.9883C179.023 75.9883 179.235 75.972 179.443 75.9395C179.651 75.9069 179.847 75.8613 180.029 75.8027C180.211 75.7441 180.371 75.679 180.507 75.6074C180.651 75.5293 180.758 75.4479 180.83 75.3633L180.839 72.7852H178.486V70.7344H183.574L183.584 76.3398ZM220.119 63H226.027V75.793H229.055V78H220.119V75.793H223.283V65.2168H220.119V63ZM231.472 63.7812H239.695V65.998H236.921V75.793H239.695V78H231.472V75.793H234.177V65.998H231.472V63.7812ZM261.376 67.2383C261.786 67.2383 262.164 67.2676 262.509 67.3262C262.86 67.3783 263.143 67.4368 263.358 67.502L262.958 70.207C262.6 70.1224 262.232 70.0605 261.854 70.0215C261.483 69.9759 261.128 69.9531 260.79 69.9531C260.438 69.9531 260.119 69.9857 259.833 70.0508C259.553 70.1094 259.302 70.2005 259.081 70.3242C258.814 70.4674 258.586 70.6497 258.397 70.8711C258.208 71.0924 258.052 71.3529 257.929 71.6523V78H255.214V67.4336H257.743L257.85 68.9277L257.87 69.1621C258.3 68.5632 258.814 68.0944 259.413 67.7559C260.012 67.4108 260.666 67.2383 261.376 67.2383ZM287.906 78V63.7812H292.681C293.456 63.7812 294.159 63.8594 294.791 64.0156C295.429 64.1719 295.972 64.4095 296.421 64.7285C296.871 65.0475 297.216 65.4512 297.457 65.9395C297.704 66.4277 297.828 67.0039 297.828 67.668C297.821 68.0977 297.743 68.5046 297.593 68.8887C297.45 69.2663 297.235 69.5983 296.949 69.8848C296.793 70.041 296.614 70.1842 296.412 70.3145C296.216 70.4447 295.998 70.5553 295.757 70.6465V70.6562C296.226 70.7865 296.597 70.9525 296.871 71.1543C297.151 71.3561 297.385 71.5905 297.574 71.8574C297.769 72.1439 297.912 72.4564 298.004 72.7949C298.101 73.127 298.15 73.472 298.15 73.8301C298.15 74.5137 298.033 75.1159 297.798 75.6367C297.564 76.1576 297.229 76.5938 296.793 76.9453C296.356 77.2969 295.826 77.5605 295.201 77.7363C294.576 77.9121 293.873 78 293.091 78H287.906ZM290.66 71.7305V75.7832H293.101C293.459 75.7832 293.778 75.7376 294.058 75.6465C294.345 75.5553 294.582 75.4316 294.771 75.2754C294.979 75.0996 295.136 74.888 295.24 74.6406C295.351 74.3932 295.406 74.1165 295.406 73.8105C295.406 73.4915 295.364 73.2051 295.279 72.9512C295.201 72.6973 295.074 72.4824 294.898 72.3066C294.722 72.1243 294.494 71.9844 294.214 71.8867C293.934 71.7891 293.602 71.737 293.218 71.7305H290.66ZM290.66 69.748H292.701C293.117 69.7415 293.485 69.6927 293.804 69.6016C294.123 69.5039 294.38 69.3607 294.576 69.1719C294.739 69.0221 294.862 68.8398 294.947 68.625C295.038 68.4102 295.084 68.166 295.084 67.8926C295.084 67.6061 295.045 67.3555 294.966 67.1406C294.895 66.9258 294.784 66.7467 294.634 66.6035C294.439 66.4017 294.175 66.2552 293.843 66.1641C293.518 66.0729 293.134 66.0241 292.691 66.0176H290.66V69.748ZM302.169 69.6992H303.644C304.034 69.6992 304.37 69.6471 304.65 69.543C304.936 69.4323 305.167 69.2793 305.343 69.084C305.506 68.9147 305.626 68.7096 305.704 68.4688C305.789 68.2214 305.831 67.9544 305.831 67.668C305.831 67.388 305.789 67.1341 305.704 66.9062C305.626 66.6719 305.506 66.4701 305.343 66.3008C305.18 66.138 304.972 66.0111 304.718 65.9199C304.471 65.8288 304.181 65.7832 303.849 65.7832C303.575 65.7832 303.318 65.8223 303.077 65.9004C302.843 65.9785 302.638 66.0892 302.462 66.2324C302.28 66.3822 302.137 66.5612 302.032 66.7695C301.928 66.9779 301.876 67.2122 301.876 67.4727H299.161C299.161 66.8932 299.279 66.3659 299.513 65.8906C299.754 65.4154 300.083 65.0052 300.499 64.6602C300.916 64.3216 301.404 64.0579 301.964 63.8691C302.53 63.6803 303.139 63.5859 303.79 63.5859C304.493 63.5859 305.138 63.6738 305.724 63.8496C306.31 64.0189 306.811 64.2728 307.228 64.6113C307.644 64.9564 307.967 65.3828 308.195 65.8906C308.429 66.3919 308.546 66.9746 308.546 67.6387C308.546 67.9447 308.501 68.2474 308.409 68.5469C308.318 68.8398 308.185 69.1198 308.009 69.3867C307.833 69.6536 307.615 69.901 307.355 70.1289C307.094 70.3503 306.795 70.5423 306.456 70.7051C306.853 70.8483 307.195 71.0306 307.482 71.252C307.775 71.4733 308.015 71.724 308.204 72.0039C308.393 72.2904 308.533 72.6029 308.624 72.9414C308.715 73.2799 308.761 73.638 308.761 74.0156C308.761 74.6797 308.634 75.2721 308.38 75.793C308.126 76.3138 307.778 76.75 307.335 77.1016C306.892 77.4596 306.365 77.7331 305.753 77.9219C305.148 78.1042 304.493 78.1953 303.79 78.1953C303.185 78.1953 302.592 78.1139 302.013 77.9512C301.44 77.7819 300.929 77.528 300.48 77.1895C300.03 76.8574 299.669 76.4375 299.396 75.9297C299.129 75.4219 298.995 74.8229 298.995 74.1328H301.71C301.71 74.4062 301.762 74.6602 301.866 74.8945C301.971 75.1224 302.12 75.3177 302.316 75.4805C302.504 75.6497 302.729 75.7832 302.989 75.8809C303.25 75.972 303.536 76.0176 303.849 76.0176C304.2 76.0176 304.516 75.9688 304.796 75.8711C305.076 75.7734 305.31 75.6302 305.499 75.4414C305.682 75.2721 305.818 75.0638 305.909 74.8164C306.007 74.569 306.056 74.2923 306.056 73.9863C306.056 73.6022 306.001 73.2734 305.89 73C305.779 72.7266 305.62 72.502 305.411 72.3262C305.196 72.1504 304.939 72.0202 304.64 71.9355C304.347 71.8509 304.015 71.8086 303.644 71.8086H302.169V69.6992ZM315.827 64.8457V67.4336H319.772V69.4355H315.827V73.9766C315.827 74.3607 315.869 74.6829 315.954 74.9434C316.045 75.1973 316.172 75.3991 316.335 75.5488C316.498 75.7051 316.693 75.8158 316.921 75.8809C317.155 75.946 317.416 75.9785 317.702 75.9785C317.91 75.9785 318.122 75.9688 318.337 75.9492C318.558 75.9297 318.77 75.9036 318.971 75.8711C319.167 75.8451 319.349 75.8158 319.518 75.7832C319.694 75.7507 319.844 75.7181 319.968 75.6855L320.231 77.5508C320.042 77.6615 319.821 77.7591 319.567 77.8438C319.313 77.9219 319.043 77.987 318.757 78.0391C318.47 78.0911 318.171 78.1302 317.858 78.1562C317.552 78.1888 317.249 78.2051 316.95 78.2051C316.371 78.2051 315.843 78.1302 315.368 77.9805C314.899 77.8242 314.499 77.5833 314.167 77.2578C313.828 76.9388 313.568 76.5319 313.386 76.0371C313.203 75.5358 313.112 74.9368 313.112 74.2402V69.4355H310.7V67.4336H313.112V64.8457H315.827ZM79.8527 95.7695H74.0129V99.7832H80.8391V102H71.259V87.7812H80.8098V90.0176H74.0129V93.6016H79.8527V95.7695ZM87.5926 88.8457V91.4336H91.5379V93.4355H87.5926V97.9766C87.5926 98.3607 87.6349 98.6829 87.7195 98.9434C87.8107 99.1973 87.9376 99.3991 88.1004 99.5488C88.2632 99.7051 88.4585 99.8158 88.6863 99.8809C88.9207 99.946 89.1811 99.9785 89.4676 99.9785C89.6759 99.9785 89.8875 99.9688 90.1023 99.9492C90.3237 99.9297 90.5353 99.9036 90.7371 99.8711C90.9324 99.8451 91.1147 99.8158 91.284 99.7832C91.4598 99.7507 91.6095 99.7181 91.7332 99.6855L91.9969 101.551C91.8081 101.661 91.5867 101.759 91.3328 101.844C91.0789 101.922 90.8087 101.987 90.5223 102.039C90.2358 102.091 89.9363 102.13 89.6238 102.156C89.3178 102.189 89.0151 102.205 88.7156 102.205C88.1362 102.205 87.6089 102.13 87.1336 101.98C86.6648 101.824 86.2645 101.583 85.9324 101.258C85.5939 100.939 85.3335 100.532 85.1512 100.037C84.9689 99.5358 84.8777 98.9368 84.8777 98.2402V93.4355H82.4656V91.4336H84.8777V88.8457H87.5926Z" fill="#383C43"/><path d="M62.523 69.6992H63.9977C64.3883 69.6992 64.7236 69.6471 65.0035 69.543C65.29 69.4323 65.5211 69.2793 65.6969 69.084C65.8596 68.9147 65.9801 68.7096 66.0582 68.4688C66.1428 68.2214 66.1852 67.9544 66.1852 67.668C66.1852 67.388 66.1428 67.1341 66.0582 66.9062C65.9801 66.6719 65.8596 66.4701 65.6969 66.3008C65.5341 66.138 65.3258 66.0111 65.0719 65.9199C64.8245 65.8288 64.5348 65.7832 64.2027 65.7832C63.9293 65.7832 63.6721 65.8223 63.4312 65.9004C63.1969 65.9785 62.9918 66.0892 62.816 66.2324C62.6337 66.3822 62.4905 66.5612 62.3863 66.7695C62.2822 66.9779 62.2301 67.2122 62.2301 67.4727H59.5152C59.5152 66.8932 59.6324 66.3659 59.8668 65.8906C60.1077 65.4154 60.4365 65.0052 60.8531 64.6602C61.2698 64.3216 61.7581 64.0579 62.318 63.8691C62.8844 63.6803 63.4931 63.5859 64.1441 63.5859C64.8473 63.5859 65.4918 63.6738 66.0777 63.8496C66.6637 64.0189 67.165 64.2728 67.5816 64.6113C67.9983 64.9564 68.3206 65.3828 68.5484 65.8906C68.7828 66.3919 68.9 66.9746 68.9 67.6387C68.9 67.9447 68.8544 68.2474 68.7633 68.5469C68.6721 68.8398 68.5387 69.1198 68.3629 69.3867C68.1871 69.6536 67.969 69.901 67.7086 70.1289C67.4482 70.3503 67.1487 70.5423 66.8102 70.7051C67.2073 70.8483 67.5491 71.0306 67.8355 71.252C68.1285 71.4733 68.3694 71.724 68.5582 72.0039C68.747 72.2904 68.887 72.6029 68.9781 72.9414C69.0693 73.2799 69.1148 73.638 69.1148 74.0156C69.1148 74.6797 68.9879 75.2721 68.734 75.793C68.4801 76.3138 68.1318 76.75 67.6891 77.1016C67.2464 77.4596 66.719 77.7331 66.107 77.9219C65.5016 78.1042 64.8473 78.1953 64.1441 78.1953C63.5387 78.1953 62.9462 78.1139 62.3668 77.9512C61.7939 77.7819 61.2828 77.528 60.8336 77.1895C60.3844 76.8574 60.023 76.4375 59.7496 75.9297C59.4827 75.4219 59.3492 74.8229 59.3492 74.1328H62.0641C62.0641 74.4062 62.1161 74.6602 62.2203 74.8945C62.3245 75.1224 62.4742 75.3177 62.6695 75.4805C62.8583 75.6497 63.0829 75.7832 63.3434 75.8809C63.6038 75.972 63.8902 76.0176 64.2027 76.0176C64.5543 76.0176 64.8701 75.9688 65.15 75.8711C65.4299 75.7734 65.6643 75.6302 65.8531 75.4414C66.0354 75.2721 66.1721 75.0638 66.2633 74.8164C66.3609 74.569 66.4098 74.2923 66.4098 73.9863C66.4098 73.6022 66.3544 73.2734 66.2437 73C66.1331 72.7266 65.9736 72.502 65.7652 72.3262C65.5504 72.1504 65.2932 72.0202 64.9937 71.9355C64.7008 71.8509 64.3687 71.8086 63.9977 71.8086H62.523V69.6992ZM119.582 69.6992H121.056C121.447 69.6992 121.782 69.6471 122.062 69.543C122.349 69.4323 122.58 69.2793 122.755 69.084C122.918 68.9147 123.039 68.7096 123.117 68.4688C123.201 68.2214 123.244 67.9544 123.244 67.668C123.244 67.388 123.201 67.1341 123.117 66.9062C123.039 66.6719 122.918 66.4701 122.755 66.3008C122.593 66.138 122.384 66.0111 122.13 65.9199C121.883 65.8288 121.593 65.7832 121.261 65.7832C120.988 65.7832 120.731 65.8223 120.49 65.9004C120.255 65.9785 120.05 66.0892 119.875 66.2324C119.692 66.3822 119.549 66.5612 119.445 66.7695C119.341 66.9779 119.289 67.2122 119.289 67.4727H116.574C116.574 66.8932 116.691 66.3659 116.925 65.8906C117.166 65.4154 117.495 65.0052 117.912 64.6602C118.328 64.3216 118.817 64.0579 119.377 63.8691C119.943 63.6803 120.552 63.5859 121.203 63.5859C121.906 63.5859 122.55 63.6738 123.136 63.8496C123.722 64.0189 124.224 64.2728 124.64 64.6113C125.057 64.9564 125.379 65.3828 125.607 65.8906C125.841 66.3919 125.959 66.9746 125.959 67.6387C125.959 67.9447 125.913 68.2474 125.822 68.5469C125.731 68.8398 125.597 69.1198 125.421 69.3867C125.246 69.6536 125.028 69.901 124.767 70.1289C124.507 70.3503 124.207 70.5423 123.869 70.7051C124.266 70.8483 124.608 71.0306 124.894 71.252C125.187 71.4733 125.428 71.724 125.617 72.0039C125.806 72.2904 125.946 72.6029 126.037 72.9414C126.128 73.2799 126.173 73.638 126.173 74.0156C126.173 74.6797 126.046 75.2721 125.793 75.793C125.539 76.3138 125.19 76.75 124.748 77.1016C124.305 77.4596 123.778 77.7331 123.166 77.9219C122.56 78.1042 121.906 78.1953 121.203 78.1953C120.597 78.1953 120.005 78.1139 119.425 77.9512C118.852 77.7819 118.341 77.528 117.892 77.1895C117.443 76.8574 117.082 76.4375 116.808 75.9297C116.541 75.4219 116.408 74.8229 116.408 74.1328H119.123C119.123 74.4062 119.175 74.6602 119.279 74.8945C119.383 75.1224 119.533 75.3177 119.728 75.4805C119.917 75.6497 120.142 75.7832 120.402 75.8809C120.662 75.972 120.949 76.0176 121.261 76.0176C121.613 76.0176 121.929 75.9688 122.209 75.8711C122.489 75.7734 122.723 75.6302 122.912 75.4414C123.094 75.2721 123.231 75.0638 123.322 74.8164C123.42 74.569 123.468 74.2923 123.468 73.9863C123.468 73.6022 123.413 73.2734 123.302 73C123.192 72.7266 123.032 72.502 122.824 72.3262C122.609 72.1504 122.352 72.0202 122.052 71.9355C121.759 71.8509 121.427 71.8086 121.056 71.8086H119.582V69.6992ZM128.396 70.998L129.206 63.7812H137.097V66.0859H131.443L131.101 69.2109C131.303 69.0938 131.589 68.9733 131.96 68.8496C132.331 68.7259 132.758 68.6641 133.239 68.6641C133.923 68.6641 134.532 68.7747 135.066 68.9961C135.606 69.2109 136.062 69.5234 136.433 69.9336C136.797 70.3438 137.077 70.8451 137.273 71.4375C137.468 72.0299 137.566 72.7005 137.566 73.4492C137.566 74.0872 137.471 74.6927 137.282 75.2656C137.094 75.8385 136.804 76.3431 136.413 76.7793C136.023 77.2155 135.531 77.5605 134.939 77.8145C134.346 78.0684 133.646 78.1953 132.839 78.1953C132.227 78.1953 131.635 78.1042 131.062 77.9219C130.495 77.7396 129.991 77.4727 129.548 77.1211C129.105 76.7695 128.744 76.3398 128.464 75.832C128.191 75.3177 128.044 74.7318 128.025 74.0742H130.7C130.765 74.6927 130.987 75.1712 131.364 75.5098C131.749 75.8483 132.237 76.0176 132.829 76.0176C133.194 76.0176 133.503 75.9492 133.757 75.8125C134.017 75.6758 134.229 75.487 134.392 75.2461C134.548 75.0052 134.662 74.7188 134.734 74.3867C134.812 74.0547 134.851 73.6966 134.851 73.3125C134.851 72.9349 134.802 72.5898 134.704 72.2773C134.613 71.9583 134.47 71.6849 134.275 71.457C134.079 71.2292 133.835 71.0534 133.542 70.9297C133.249 70.806 132.904 70.7441 132.507 70.7441C132.24 70.7441 132.009 70.7669 131.814 70.8125C131.618 70.8581 131.446 70.9167 131.296 70.9883C131.146 71.0599 131.013 71.1445 130.896 71.2422C130.779 71.3333 130.668 71.431 130.564 71.5352L128.396 70.998ZM153.817 69.6992H155.291C155.682 69.6992 156.017 69.6471 156.297 69.543C156.584 69.4323 156.815 69.2793 156.991 69.084C157.153 68.9147 157.274 68.7096 157.352 68.4688C157.437 68.2214 157.479 67.9544 157.479 67.668C157.479 67.388 157.437 67.1341 157.352 66.9062C157.274 66.6719 157.153 66.4701 156.991 66.3008C156.828 66.138 156.62 66.0111 156.366 65.9199C156.118 65.8288 155.829 65.7832 155.496 65.7832C155.223 65.7832 154.966 65.8223 154.725 65.9004C154.491 65.9785 154.286 66.0892 154.11 66.2324C153.927 66.3822 153.784 66.5612 153.68 66.7695C153.576 66.9779 153.524 67.2122 153.524 67.4727H150.809C150.809 66.8932 150.926 66.3659 151.161 65.8906C151.401 65.4154 151.73 65.0052 152.147 64.6602C152.564 64.3216 153.052 64.0579 153.612 63.8691C154.178 63.6803 154.787 63.5859 155.438 63.5859C156.141 63.5859 156.786 63.6738 157.371 63.8496C157.957 64.0189 158.459 64.2728 158.875 64.6113C159.292 64.9564 159.614 65.3828 159.842 65.8906C160.077 66.3919 160.194 66.9746 160.194 67.6387C160.194 67.9447 160.148 68.2474 160.057 68.5469C159.966 68.8398 159.832 69.1198 159.657 69.3867C159.481 69.6536 159.263 69.901 159.002 70.1289C158.742 70.3503 158.442 70.5423 158.104 70.7051C158.501 70.8483 158.843 71.0306 159.129 71.252C159.422 71.4733 159.663 71.724 159.852 72.0039C160.041 72.2904 160.181 72.6029 160.272 72.9414C160.363 73.2799 160.409 73.638 160.409 74.0156C160.409 74.6797 160.282 75.2721 160.028 75.793C159.774 76.3138 159.426 76.75 158.983 77.1016C158.54 77.4596 158.013 77.7331 157.401 77.9219C156.795 78.1042 156.141 78.1953 155.438 78.1953C154.832 78.1953 154.24 78.1139 153.661 77.9512C153.088 77.7819 152.577 77.528 152.127 77.1895C151.678 76.8574 151.317 76.4375 151.043 75.9297C150.776 75.4219 150.643 74.8229 150.643 74.1328H153.358C153.358 74.4062 153.41 74.6602 153.514 74.8945C153.618 75.1224 153.768 75.3177 153.963 75.4805C154.152 75.6497 154.377 75.7832 154.637 75.8809C154.898 75.972 155.184 76.0176 155.496 76.0176C155.848 76.0176 156.164 75.9688 156.444 75.8711C156.724 75.7734 156.958 75.6302 157.147 75.4414C157.329 75.2721 157.466 75.0638 157.557 74.8164C157.655 74.569 157.704 74.2923 157.704 73.9863C157.704 73.6022 157.648 73.2734 157.537 73C157.427 72.7266 157.267 72.502 157.059 72.3262C156.844 72.1504 156.587 72.0202 156.287 71.9355C155.995 71.8509 155.662 71.8086 155.291 71.8086H153.817V69.6992ZM188.052 69.6992H189.527C189.917 69.6992 190.252 69.6471 190.532 69.543C190.819 69.4323 191.05 69.2793 191.226 69.084C191.389 68.9147 191.509 68.7096 191.587 68.4688C191.672 68.2214 191.714 67.9544 191.714 67.668C191.714 67.388 191.672 67.1341 191.587 66.9062C191.509 66.6719 191.389 66.4701 191.226 66.3008C191.063 66.138 190.855 66.0111 190.601 65.9199C190.353 65.8288 190.064 65.7832 189.732 65.7832C189.458 65.7832 189.201 65.8223 188.96 65.9004C188.726 65.9785 188.521 66.0892 188.345 66.2324C188.163 66.3822 188.019 66.5612 187.915 66.7695C187.811 66.9779 187.759 67.2122 187.759 67.4727H185.044C185.044 66.8932 185.161 66.3659 185.396 65.8906C185.637 65.4154 185.965 65.0052 186.382 64.6602C186.799 64.3216 187.287 64.0579 187.847 63.8691C188.413 63.6803 189.022 63.5859 189.673 63.5859C190.376 63.5859 191.021 63.6738 191.607 63.8496C192.193 64.0189 192.694 64.2728 193.111 64.6113C193.527 64.9564 193.849 65.3828 194.077 65.8906C194.312 66.3919 194.429 66.9746 194.429 67.6387C194.429 67.9447 194.383 68.2474 194.292 68.5469C194.201 68.8398 194.068 69.1198 193.892 69.3867C193.716 69.6536 193.498 69.901 193.238 70.1289C192.977 70.3503 192.678 70.5423 192.339 70.7051C192.736 70.8483 193.078 71.0306 193.364 71.252C193.657 71.4733 193.898 71.724 194.087 72.0039C194.276 72.2904 194.416 72.6029 194.507 72.9414C194.598 73.2799 194.644 73.638 194.644 74.0156C194.644 74.6797 194.517 75.2721 194.263 75.793C194.009 76.3138 193.661 76.75 193.218 77.1016C192.775 77.4596 192.248 77.7331 191.636 77.9219C191.03 78.1042 190.376 78.1953 189.673 78.1953C189.068 78.1953 188.475 78.1139 187.896 77.9512C187.323 77.7819 186.812 77.528 186.363 77.1895C185.913 76.8574 185.552 76.4375 185.279 75.9297C185.012 75.4219 184.878 74.8229 184.878 74.1328H187.593C187.593 74.4062 187.645 74.6602 187.749 74.8945C187.853 75.1224 188.003 75.3177 188.198 75.4805C188.387 75.6497 188.612 75.7832 188.872 75.8809C189.133 75.972 189.419 76.0176 189.732 76.0176C190.083 76.0176 190.399 75.9688 190.679 75.8711C190.959 75.7734 191.193 75.6302 191.382 75.4414C191.564 75.2721 191.701 75.0638 191.792 74.8164C191.89 74.569 191.939 74.2923 191.939 73.9863C191.939 73.6022 191.883 73.2734 191.773 73C191.662 72.7266 191.502 72.502 191.294 72.3262C191.079 72.1504 190.822 72.0202 190.523 71.9355C190.23 71.8509 189.898 71.8086 189.527 71.8086H188.052V69.6992ZM205.655 67.5605C205.655 67.9512 205.596 68.319 205.479 68.6641C205.369 69.0026 205.209 69.3151 205.001 69.6016C204.838 69.8164 204.646 70.0182 204.425 70.207C204.21 70.3893 203.969 70.5488 203.702 70.6855C203.943 70.8027 204.171 70.9362 204.386 71.0859C204.6 71.2292 204.792 71.3919 204.962 71.5742C205.274 71.8997 205.518 72.2773 205.694 72.707C205.87 73.1367 205.958 73.6055 205.958 74.1133C205.958 74.7839 205.834 75.373 205.587 75.8809C205.346 76.3887 205.014 76.8118 204.591 77.1504C204.161 77.4954 203.656 77.7559 203.077 77.9316C202.498 78.1074 201.873 78.1953 201.202 78.1953C200.525 78.1953 199.893 78.1074 199.307 77.9316C198.728 77.7559 198.223 77.4954 197.794 77.1504C197.364 76.8118 197.026 76.3887 196.778 75.8809C196.537 75.373 196.417 74.7839 196.417 74.1133C196.417 73.7227 196.469 73.3548 196.573 73.0098C196.684 72.6582 196.837 72.3359 197.032 72.043C197.227 71.7565 197.462 71.4993 197.735 71.2715C198.015 71.0371 198.328 70.8385 198.673 70.6758C198.38 70.526 198.113 70.347 197.872 70.1387C197.637 69.9303 197.439 69.6992 197.276 69.4453C197.1 69.1784 196.964 68.8854 196.866 68.5664C196.775 68.2474 196.729 67.9121 196.729 67.5605C196.729 66.916 196.84 66.3496 197.061 65.8613C197.283 65.3665 197.592 64.9499 197.989 64.6113C198.38 64.2728 198.845 64.0189 199.386 63.8496C199.932 63.6738 200.528 63.5859 201.173 63.5859C201.817 63.5859 202.413 63.6738 202.96 63.8496C203.507 64.0189 203.982 64.2728 204.386 64.6113C204.783 64.9499 205.092 65.3665 205.313 65.8613C205.541 66.3496 205.655 66.916 205.655 67.5605ZM203.233 73.9277C203.233 73.6022 203.184 73.3092 203.087 73.0488C202.989 72.7884 202.852 72.5638 202.677 72.375C202.494 72.1927 202.276 72.0527 202.022 71.9551C201.775 71.8574 201.495 71.8086 201.182 71.8086C200.87 71.8086 200.587 71.8574 200.333 71.9551C200.085 72.0527 199.874 72.1927 199.698 72.375C199.522 72.5638 199.386 72.7884 199.288 73.0488C199.19 73.3092 199.141 73.6022 199.141 73.9277C199.141 74.2663 199.193 74.569 199.298 74.8359C199.402 75.1029 199.548 75.3242 199.737 75.5C199.913 75.6693 200.124 75.7995 200.372 75.8906C200.619 75.9753 200.896 76.0176 201.202 76.0176C201.501 76.0176 201.775 75.972 202.022 75.8809C202.27 75.7832 202.485 75.6432 202.667 75.4609C202.843 75.2786 202.979 75.0605 203.077 74.8066C203.181 74.5462 203.233 74.2533 203.233 73.9277ZM202.95 67.6875C202.95 67.401 202.908 67.1406 202.823 66.9062C202.738 66.6719 202.621 66.4701 202.471 66.3008C202.315 66.138 202.126 66.0111 201.905 65.9199C201.69 65.8288 201.443 65.7832 201.163 65.7832C200.889 65.7832 200.645 65.8288 200.43 65.9199C200.216 66.0046 200.037 66.1283 199.893 66.291C199.744 66.4538 199.63 66.6556 199.552 66.8965C199.48 67.1309 199.444 67.3945 199.444 67.6875C199.444 67.974 199.483 68.2376 199.561 68.4785C199.639 68.7129 199.757 68.9147 199.913 69.084C200.063 69.2533 200.245 69.3867 200.46 69.4844C200.681 69.5755 200.929 69.6211 201.202 69.6211C201.475 69.6211 201.72 69.5755 201.934 69.4844C202.149 69.3867 202.332 69.2533 202.481 69.084C202.631 68.9147 202.745 68.7129 202.823 68.4785C202.908 68.2376 202.95 67.974 202.95 67.6875ZM214.791 78H212.047V67.0918L208.454 68.3809V66.0176L214.645 63.7812H214.791V78ZM242.513 70.998L243.323 63.7812H251.214V66.0859H245.56L245.218 69.2109C245.42 69.0938 245.706 68.9733 246.077 68.8496C246.448 68.7259 246.875 68.6641 247.357 68.6641C248.04 68.6641 248.649 68.7747 249.183 68.9961C249.723 69.2109 250.179 69.5234 250.55 69.9336C250.915 70.3438 251.195 70.8451 251.39 71.4375C251.585 72.0299 251.683 72.7005 251.683 73.4492C251.683 74.0872 251.588 74.6927 251.4 75.2656C251.211 75.8385 250.921 76.3431 250.53 76.7793C250.14 77.2155 249.648 77.5605 249.056 77.8145C248.463 78.0684 247.764 78.1953 246.956 78.1953C246.344 78.1953 245.752 78.1042 245.179 77.9219C244.613 77.7396 244.108 77.4727 243.665 77.1211C243.223 76.7695 242.861 76.3398 242.581 75.832C242.308 75.3177 242.161 74.7318 242.142 74.0742H244.818C244.883 74.6927 245.104 75.1712 245.482 75.5098C245.866 75.8483 246.354 76.0176 246.946 76.0176C247.311 76.0176 247.62 75.9492 247.874 75.8125C248.135 75.6758 248.346 75.487 248.509 75.2461C248.665 75.0052 248.779 74.7188 248.851 74.3867C248.929 74.0547 248.968 73.6966 248.968 73.3125C248.968 72.9349 248.919 72.5898 248.821 72.2773C248.73 71.9583 248.587 71.6849 248.392 71.457C248.196 71.2292 247.952 71.0534 247.659 70.9297C247.366 70.806 247.021 70.7441 246.624 70.7441C246.357 70.7441 246.126 70.7669 245.931 70.8125C245.736 70.8581 245.563 70.9167 245.413 70.9883C245.264 71.0599 245.13 71.1445 245.013 71.2422C244.896 71.3333 244.785 71.431 244.681 71.5352L242.513 70.998ZM267.934 69.6992H269.409C269.799 69.6992 270.135 69.6471 270.414 69.543C270.701 69.4323 270.932 69.2793 271.108 69.084C271.271 68.9147 271.391 68.7096 271.469 68.4688C271.554 68.2214 271.596 67.9544 271.596 67.668C271.596 67.388 271.554 67.1341 271.469 66.9062C271.391 66.6719 271.271 66.4701 271.108 66.3008C270.945 66.138 270.737 66.0111 270.483 65.9199C270.235 65.8288 269.946 65.7832 269.614 65.7832C269.34 65.7832 269.083 65.8223 268.842 65.9004C268.608 65.9785 268.403 66.0892 268.227 66.2324C268.045 66.3822 267.901 66.5612 267.797 66.7695C267.693 66.9779 267.641 67.2122 267.641 67.4727H264.926C264.926 66.8932 265.043 66.3659 265.278 65.8906C265.519 65.4154 265.847 65.0052 266.264 64.6602C266.681 64.3216 267.169 64.0579 267.729 63.8691C268.295 63.6803 268.904 63.5859 269.555 63.5859C270.258 63.5859 270.903 63.6738 271.489 63.8496C272.075 64.0189 272.576 64.2728 272.993 64.6113C273.409 64.9564 273.732 65.3828 273.959 65.8906C274.194 66.3919 274.311 66.9746 274.311 67.6387C274.311 67.9447 274.265 68.2474 274.174 68.5469C274.083 68.8398 273.95 69.1198 273.774 69.3867C273.598 69.6536 273.38 69.901 273.12 70.1289C272.859 70.3503 272.56 70.5423 272.221 70.7051C272.618 70.8483 272.96 71.0306 273.246 71.252C273.539 71.4733 273.78 71.724 273.969 72.0039C274.158 72.2904 274.298 72.6029 274.389 72.9414C274.48 73.2799 274.526 73.638 274.526 74.0156C274.526 74.6797 274.399 75.2721 274.145 75.793C273.891 76.3138 273.543 76.75 273.1 77.1016C272.657 77.4596 272.13 77.7331 271.518 77.9219C270.913 78.1042 270.258 78.1953 269.555 78.1953C268.95 78.1953 268.357 78.1139 267.778 77.9512C267.205 77.7819 266.694 77.528 266.245 77.1895C265.795 76.8574 265.434 76.4375 265.161 75.9297C264.894 75.4219 264.76 74.8229 264.76 74.1328H267.475C267.475 74.4062 267.527 74.6602 267.631 74.8945C267.735 75.1224 267.885 75.3177 268.08 75.4805C268.269 75.6497 268.494 75.7832 268.754 75.8809C269.015 75.972 269.301 76.0176 269.614 76.0176C269.965 76.0176 270.281 75.9688 270.561 75.8711C270.841 75.7734 271.075 75.6302 271.264 75.4414C271.446 75.2721 271.583 75.0638 271.674 74.8164C271.772 74.569 271.821 74.2923 271.821 73.9863C271.821 73.6022 271.765 73.2734 271.655 73C271.544 72.7266 271.385 72.502 271.176 72.3262C270.961 72.1504 270.704 72.0202 270.405 71.9355C270.112 71.8509 269.78 71.8086 269.409 71.8086H267.934V69.6992ZM285.537 67.5605C285.537 67.9512 285.479 68.319 285.361 68.6641C285.251 69.0026 285.091 69.3151 284.883 69.6016C284.72 69.8164 284.528 70.0182 284.307 70.207C284.092 70.3893 283.851 70.5488 283.584 70.6855C283.825 70.8027 284.053 70.9362 284.268 71.0859C284.482 71.2292 284.674 71.3919 284.844 71.5742C285.156 71.8997 285.4 72.2773 285.576 72.707C285.752 73.1367 285.84 73.6055 285.84 74.1133C285.84 74.7839 285.716 75.373 285.469 75.8809C285.228 76.3887 284.896 76.8118 284.473 77.1504C284.043 77.4954 283.538 77.7559 282.959 77.9316C282.38 78.1074 281.755 78.1953 281.084 78.1953C280.407 78.1953 279.775 78.1074 279.189 77.9316C278.61 77.7559 278.105 77.4954 277.676 77.1504C277.246 76.8118 276.908 76.3887 276.66 75.8809C276.419 75.373 276.299 74.7839 276.299 74.1133C276.299 73.7227 276.351 73.3548 276.455 73.0098C276.566 72.6582 276.719 72.3359 276.914 72.043C277.109 71.7565 277.344 71.4993 277.617 71.2715C277.897 71.0371 278.21 70.8385 278.555 70.6758C278.262 70.526 277.995 70.347 277.754 70.1387C277.52 69.9303 277.321 69.6992 277.158 69.4453C276.982 69.1784 276.846 68.8854 276.748 68.5664C276.657 68.2474 276.611 67.9121 276.611 67.5605C276.611 66.916 276.722 66.3496 276.943 65.8613C277.165 65.3665 277.474 64.9499 277.871 64.6113C278.262 64.2728 278.727 64.0189 279.268 63.8496C279.814 63.6738 280.41 63.5859 281.055 63.5859C281.699 63.5859 282.295 63.6738 282.842 63.8496C283.389 64.0189 283.864 64.2728 284.268 64.6113C284.665 64.9499 284.974 65.3665 285.195 65.8613C285.423 66.3496 285.537 66.916 285.537 67.5605ZM283.115 73.9277C283.115 73.6022 283.066 73.3092 282.969 73.0488C282.871 72.7884 282.734 72.5638 282.559 72.375C282.376 72.1927 282.158 72.0527 281.904 71.9551C281.657 71.8574 281.377 71.8086 281.064 71.8086C280.752 71.8086 280.469 71.8574 280.215 71.9551C279.967 72.0527 279.756 72.1927 279.58 72.375C279.404 72.5638 279.268 72.7884 279.17 73.0488C279.072 73.3092 279.023 73.6022 279.023 73.9277C279.023 74.2663 279.076 74.569 279.18 74.8359C279.284 75.1029 279.43 75.3242 279.619 75.5C279.795 75.6693 280.007 75.7995 280.254 75.8906C280.501 75.9753 280.778 76.0176 281.084 76.0176C281.383 76.0176 281.657 75.972 281.904 75.8809C282.152 75.7832 282.367 75.6432 282.549 75.4609C282.725 75.2786 282.861 75.0605 282.959 74.8066C283.063 74.5462 283.115 74.2533 283.115 73.9277ZM282.832 67.6875C282.832 67.401 282.79 67.1406 282.705 66.9062C282.62 66.6719 282.503 66.4701 282.354 66.3008C282.197 66.138 282.008 66.0111 281.787 65.9199C281.572 65.8288 281.325 65.7832 281.045 65.7832C280.771 65.7832 280.527 65.8288 280.312 65.9199C280.098 66.0046 279.919 66.1283 279.775 66.291C279.626 66.4538 279.512 66.6556 279.434 66.8965C279.362 67.1309 279.326 67.3945 279.326 67.6875C279.326 67.974 279.365 68.2376 279.443 68.4785C279.521 68.7129 279.639 68.9147 279.795 69.084C279.945 69.2533 280.127 69.3867 280.342 69.4844C280.563 69.5755 280.811 69.6211 281.084 69.6211C281.357 69.6211 281.602 69.5755 281.816 69.4844C282.031 69.3867 282.214 69.2533 282.363 69.084C282.513 68.9147 282.627 68.7129 282.705 68.4785C282.79 68.2376 282.832 67.974 282.832 67.6875ZM331.555 78H321.858V76.1445L326.457 71.2031C326.816 70.8125 327.118 70.4577 327.366 70.1387C327.613 69.8197 327.815 69.5267 327.971 69.2598C328.121 68.9993 328.228 68.7552 328.293 68.5273C328.365 68.2995 328.401 68.0781 328.401 67.8633C328.401 67.5443 328.355 67.2611 328.264 67.0137C328.173 66.7663 328.046 66.5547 327.883 66.3789C327.714 66.2096 327.512 66.0794 327.278 65.9883C327.05 65.8971 326.796 65.8516 326.516 65.8516C326.151 65.8516 325.829 65.9036 325.549 66.0078C325.276 66.1055 325.048 66.252 324.866 66.4473C324.677 66.6491 324.534 66.8997 324.436 67.1992C324.338 67.4987 324.289 67.8405 324.289 68.2246H321.565C321.565 67.5931 321.685 66.9974 321.926 66.4375C322.167 65.8711 322.509 65.3763 322.952 64.9531C323.388 64.5299 323.915 64.1979 324.534 63.957C325.159 63.7096 325.849 63.5859 326.604 63.5859C327.327 63.5859 327.965 63.6868 328.518 63.8887C329.078 64.0905 329.547 64.3737 329.924 64.7383C330.295 65.1029 330.579 65.5423 330.774 66.0566C330.969 66.5645 331.067 67.1276 331.067 67.7461C331.067 68.2148 330.992 68.6641 330.842 69.0938C330.699 69.5169 330.494 69.9368 330.227 70.3535C329.954 70.7702 329.628 71.1966 329.25 71.6328C328.873 72.0625 328.453 72.515 327.991 72.9902L325.315 75.8223H331.555V78ZM342.957 65.2949L337.42 78H334.559L340.105 65.998H332.967V63.7812H342.957V65.2949ZM346.947 75.8418C347.676 75.8418 348.308 75.7637 348.841 75.6074C349.375 75.4512 349.824 75.2233 350.189 74.9238C350.541 74.6374 350.814 74.2858 351.009 73.8691C351.211 73.446 351.345 72.974 351.41 72.4531V72.3945C351.273 72.5312 351.12 72.6582 350.951 72.7754C350.782 72.8926 350.596 72.9935 350.394 73.0781C350.179 73.1758 349.938 73.2539 349.671 73.3125C349.405 73.3646 349.112 73.3906 348.793 73.3906C348.115 73.3906 347.52 73.2669 347.005 73.0195C346.491 72.7721 346.061 72.4336 345.716 72.0039C345.365 71.5742 345.098 71.0697 344.916 70.4902C344.74 69.9043 344.652 69.276 344.652 68.6055C344.652 67.9154 344.759 67.2676 344.974 66.6621C345.196 66.0501 345.511 65.5163 345.921 65.0605C346.332 64.6048 346.826 64.2467 347.406 63.9863C347.992 63.7194 348.649 63.5859 349.379 63.5859C350.121 63.5859 350.788 63.7292 351.38 64.0156C351.973 64.3021 352.477 64.7025 352.894 65.2168C353.304 65.7311 353.617 66.3431 353.832 67.0527C354.053 67.7624 354.164 68.5404 354.164 69.3867V70.3242C354.164 71.457 354.024 72.4987 353.744 73.4492C353.464 74.3997 353.031 75.2201 352.445 75.9102C351.859 76.6068 351.114 77.1504 350.209 77.541C349.304 77.9251 348.223 78.1172 346.966 78.1172H346.761V75.8418H346.947ZM349.437 71.291C349.684 71.291 349.912 71.2552 350.121 71.1836C350.336 71.112 350.531 71.0111 350.707 70.8809C350.876 70.7572 351.022 70.6107 351.146 70.4414C351.276 70.2656 351.38 70.0768 351.459 69.875V68.9082C351.459 68.3874 351.403 67.9316 351.293 67.541C351.188 67.1504 351.042 66.8249 350.853 66.5645C350.664 66.304 350.443 66.1087 350.189 65.9785C349.935 65.8483 349.662 65.7832 349.369 65.7832C349.05 65.7832 348.763 65.8613 348.509 66.0176C348.262 66.1673 348.054 66.3691 347.884 66.623C347.715 66.8835 347.585 67.1829 347.494 67.5215C347.403 67.8535 347.357 68.2018 347.357 68.5664C347.357 68.931 347.399 69.2793 347.484 69.6113C347.569 69.9434 347.699 70.2331 347.875 70.4805C348.044 70.7279 348.259 70.9264 348.519 71.0762C348.78 71.2194 349.086 71.291 349.437 71.291ZM48.5137 94.998L49.3242 87.7812H57.2148V90.0859H51.5605L51.2188 93.2109C51.4206 93.0938 51.707 92.9733 52.0781 92.8496C52.4492 92.7259 52.8757 92.6641 53.3574 92.6641C54.041 92.6641 54.6497 92.7747 55.1836 92.9961C55.724 93.2109 56.1797 93.5234 56.5508 93.9336C56.9154 94.3438 57.1953 94.8451 57.3906 95.4375C57.5859 96.0299 57.6836 96.7005 57.6836 97.4492C57.6836 98.0872 57.5892 98.6927 57.4004 99.2656C57.2116 99.8385 56.9219 100.343 56.5312 100.779C56.1406 101.215 55.6491 101.561 55.0566 101.814C54.4642 102.068 53.7643 102.195 52.957 102.195C52.3451 102.195 51.7526 102.104 51.1797 101.922C50.6133 101.74 50.1087 101.473 49.666 101.121C49.2233 100.77 48.862 100.34 48.582 99.832C48.3086 99.3177 48.1621 98.7318 48.1426 98.0742H50.8184C50.8835 98.6927 51.1048 99.1712 51.4824 99.5098C51.8665 99.8483 52.3548 100.018 52.9473 100.018C53.3118 100.018 53.6211 99.9492 53.875 99.8125C54.1354 99.6758 54.347 99.487 54.5098 99.2461C54.666 99.0052 54.7799 98.7188 54.8516 98.3867C54.9297 98.0547 54.9688 97.6966 54.9688 97.3125C54.9688 96.9349 54.9199 96.5898 54.8223 96.2773C54.7311 95.9583 54.5879 95.6849 54.3926 95.457C54.1973 95.2292 53.9531 95.0534 53.6602 94.9297C53.3672 94.806 53.0221 94.7441 52.625 94.7441C52.3581 94.7441 52.127 94.7669 51.9316 94.8125C51.7363 94.8581 51.5638 94.9167 51.4141 94.9883C51.2643 95.0599 51.1309 95.1445 51.0137 95.2422C50.8965 95.3333 50.7858 95.431 50.6816 95.5352L48.5137 94.998ZM69.0855 102H59.3883V100.145L63.9879 95.2031C64.346 94.8125 64.6487 94.4577 64.8961 94.1387C65.1435 93.8197 65.3453 93.5267 65.5016 93.2598C65.6513 92.9993 65.7587 92.7552 65.8238 92.5273C65.8954 92.2995 65.9312 92.0781 65.9312 91.8633C65.9312 91.5443 65.8857 91.2611 65.7945 91.0137C65.7034 90.7663 65.5764 90.5547 65.4137 90.3789C65.2444 90.2096 65.0426 90.0794 64.8082 89.9883C64.5803 89.8971 64.3264 89.8516 64.0465 89.8516C63.6819 89.8516 63.3596 89.9036 63.0797 90.0078C62.8062 90.1055 62.5784 90.252 62.3961 90.4473C62.2073 90.6491 62.0641 90.8997 61.9664 91.1992C61.8687 91.4987 61.8199 91.8405 61.8199 92.2246H59.0953C59.0953 91.5931 59.2158 90.9974 59.4566 90.4375C59.6975 89.8711 60.0393 89.3763 60.482 88.9531C60.9182 88.5299 61.4456 88.1979 62.0641 87.957C62.6891 87.7096 63.3792 87.5859 64.1344 87.5859C64.857 87.5859 65.4951 87.6868 66.0484 87.8887C66.6083 88.0905 67.0771 88.3737 67.4547 88.7383C67.8258 89.1029 68.109 89.5423 68.3043 90.0566C68.4996 90.5645 68.5973 91.1276 68.5973 91.7461C68.5973 92.2148 68.5224 92.6641 68.3727 93.0938C68.2294 93.5169 68.0243 93.9368 67.7574 94.3535C67.484 94.7702 67.1585 95.1966 66.7809 95.6328C66.4033 96.0625 65.9833 96.515 65.5211 96.9902L62.8453 99.8223H69.0855V102ZM101.954 96.7168H103.604V98.9141H101.954V102H99.2387V98.9141H93.3305L93.223 97.2148L99.1996 87.7812H101.954V96.7168ZM95.8891 96.7168H99.2387V91.4336L98.975 91.9023L95.8891 96.7168ZM105.572 94.998L106.383 87.7812H114.273V90.0859H108.619L108.277 93.2109C108.479 93.0938 108.766 92.9733 109.137 92.8496C109.508 92.7259 109.934 92.6641 110.416 92.6641C111.1 92.6641 111.708 92.7747 112.242 92.9961C112.783 93.2109 113.238 93.5234 113.609 93.9336C113.974 94.3438 114.254 94.8451 114.449 95.4375C114.645 96.0299 114.742 96.7005 114.742 97.4492C114.742 98.0872 114.648 98.6927 114.459 99.2656C114.27 99.8385 113.98 100.343 113.59 100.779C113.199 101.215 112.708 101.561 112.115 101.814C111.523 102.068 110.823 102.195 110.016 102.195C109.404 102.195 108.811 102.104 108.238 101.922C107.672 101.74 107.167 101.473 106.725 101.121C106.282 100.77 105.921 100.34 105.641 99.832C105.367 99.3177 105.221 98.7318 105.201 98.0742H107.877C107.942 98.6927 108.163 99.1712 108.541 99.5098C108.925 99.8483 109.413 100.018 110.006 100.018C110.37 100.018 110.68 99.9492 110.934 99.8125C111.194 99.6758 111.406 99.487 111.568 99.2461C111.725 99.0052 111.839 98.7188 111.91 98.3867C111.988 98.0547 112.027 97.6966 112.027 97.3125C112.027 96.9349 111.979 96.5898 111.881 96.2773C111.79 95.9583 111.646 95.6849 111.451 95.457C111.256 95.2292 111.012 95.0534 110.719 94.9297C110.426 94.806 110.081 94.7441 109.684 94.7441C109.417 94.7441 109.186 94.7669 108.99 94.8125C108.795 94.8581 108.622 94.9167 108.473 94.9883C108.323 95.0599 108.189 95.1445 108.072 95.2422C107.955 95.3333 107.844 95.431 107.74 95.5352L105.572 94.998Z" fill="#B6C8DE"/><path d="M344.878 151.119C344.293 151.119 343.77 151.018 343.31 150.817C342.852 150.615 342.49 150.335 342.223 149.977C341.959 149.616 341.817 149.199 341.797 148.724H343.135C343.152 148.983 343.239 149.207 343.395 149.398C343.554 149.585 343.761 149.73 344.017 149.832C344.273 149.935 344.557 149.986 344.869 149.986C345.213 149.986 345.517 149.926 345.781 149.807C346.048 149.687 346.257 149.521 346.408 149.308C346.558 149.092 346.634 148.844 346.634 148.562C346.634 148.27 346.558 148.013 346.408 147.791C346.26 147.567 346.043 147.391 345.756 147.263C345.472 147.135 345.128 147.071 344.724 147.071H343.987V145.997H344.724C345.048 145.997 345.332 145.939 345.577 145.822C345.824 145.706 346.017 145.544 346.156 145.337C346.295 145.126 346.365 144.881 346.365 144.599C346.365 144.33 346.304 144.095 346.182 143.896C346.063 143.695 345.892 143.537 345.67 143.423C345.452 143.31 345.193 143.253 344.895 143.253C344.611 143.253 344.345 143.305 344.098 143.411C343.854 143.513 343.655 143.661 343.501 143.854C343.348 144.044 343.266 144.273 343.254 144.54H341.98C341.994 144.068 342.134 143.653 342.398 143.295C342.665 142.937 343.017 142.658 343.455 142.456C343.892 142.254 344.378 142.153 344.912 142.153C345.472 142.153 345.955 142.263 346.361 142.482C346.77 142.697 347.085 142.986 347.307 143.347C347.531 143.707 347.642 144.102 347.639 144.531C347.642 145.02 347.506 145.435 347.23 145.776C346.957 146.116 346.594 146.345 346.139 146.462V146.53C346.719 146.618 347.168 146.848 347.486 147.22C347.807 147.592 347.966 148.054 347.963 148.605C347.966 149.085 347.832 149.516 347.562 149.896C347.295 150.277 346.93 150.577 346.467 150.795C346.004 151.011 345.474 151.119 344.878 151.119ZM352.492 151.119C351.907 151.119 351.384 151.018 350.924 150.817C350.467 150.615 350.104 150.335 349.837 149.977C349.573 149.616 349.431 149.199 349.411 148.724H350.749C350.766 148.983 350.853 149.207 351.009 149.398C351.168 149.585 351.376 149.73 351.631 149.832C351.887 149.935 352.171 149.986 352.484 149.986C352.827 149.986 353.131 149.926 353.396 149.807C353.663 149.687 353.871 149.521 354.022 149.308C354.173 149.092 354.248 148.844 354.248 148.562C354.248 148.27 354.173 148.013 354.022 147.791C353.874 147.567 353.657 147.391 353.37 147.263C353.086 147.135 352.742 147.071 352.339 147.071H351.602V145.997H352.339C352.663 145.997 352.947 145.939 353.191 145.822C353.438 145.706 353.631 145.544 353.771 145.337C353.91 145.126 353.979 144.881 353.979 144.599C353.979 144.33 353.918 144.095 353.796 143.896C353.677 143.695 353.506 143.537 353.285 143.423C353.066 143.31 352.808 143.253 352.509 143.253C352.225 143.253 351.96 143.305 351.712 143.411C351.468 143.513 351.269 143.661 351.116 143.854C350.962 144.044 350.88 144.273 350.869 144.54H349.594C349.609 144.068 349.748 143.653 350.012 143.295C350.279 142.937 350.631 142.658 351.069 142.456C351.506 142.254 351.992 142.153 352.526 142.153C353.086 142.153 353.569 142.263 353.975 142.482C354.384 142.697 354.7 142.986 354.921 143.347C355.146 143.707 355.256 144.102 355.254 144.531C355.256 145.02 355.12 145.435 354.844 145.776C354.572 146.116 354.208 146.345 353.754 146.462V146.53C354.333 146.618 354.782 146.848 355.1 147.22C355.421 147.592 355.58 148.054 355.577 148.605C355.58 149.085 355.447 149.516 355.177 149.896C354.91 150.277 354.545 150.577 354.082 150.795C353.619 151.011 353.089 151.119 352.492 151.119Z" fill="#383C43"/><rect x="129" y="145" width="200" height="5" rx="2.5" fill="#B9BABD"/><rect x="128" y="145" width="114" height="5" rx="2.5" fill="#43A5A1"/><g filter="url(#filter0_dd_24704_5617)"><circle cx="235" cy="147" r="14" fill="white"/></g><path d="M237.813 151.127C238.039 151.127 238.224 151.045 238.381 150.895L241.699 147.699C241.884 147.508 241.979 147.31 241.979 147.063C241.979 146.824 241.891 146.612 241.699 146.435L238.381 143.232C238.224 143.082 238.039 143 237.813 143C237.355 143 237 143.355 237 143.807C237 144.025 237.096 144.237 237.246 144.395L240.038 147.07L237.246 149.732C237.089 149.896 237 150.095 237 150.32C237 150.771 237.355 151.127 237.813 151.127Z" fill="#F1F5F8"/><path d="M232.167 151.127C231.941 151.127 231.757 151.045 231.6 150.895L228.281 147.699C228.097 147.508 228.001 147.31 228.001 147.063C228.001 146.824 228.09 146.612 228.281 146.435L231.6 143.232C231.757 143.082 231.941 143 232.167 143C232.625 143 232.98 143.355 232.98 143.807C232.98 144.025 232.885 144.237 232.734 144.395L229.942 147.07L232.734 149.732C232.892 149.896 232.98 150.095 232.98 150.32C232.98 150.771 232.625 151.127 232.167 151.127Z" fill="#F1F5F8"/><path d="M51.6676 151L49.2472 142.273H50.6321L52.3324 149.031H52.4134L54.1818 142.273H55.554L57.3224 149.036H57.4034L59.0994 142.273H60.4886L58.0639 151H56.7386L54.902 144.463H54.8338L52.9972 151H51.6676ZM63.5796 151.132C62.9659 151.132 62.4304 150.991 61.973 150.71C61.5157 150.429 61.1605 150.036 60.9077 149.53C60.6549 149.024 60.5284 148.433 60.5284 147.757C60.5284 147.078 60.6549 146.484 60.9077 145.976C61.1605 145.467 61.5157 145.072 61.973 144.791C62.4304 144.51 62.9659 144.369 63.5796 144.369C64.1932 144.369 64.7287 144.51 65.1861 144.791C65.6435 145.072 65.9986 145.467 66.2514 145.976C66.5043 146.484 66.6307 147.078 66.6307 147.757C66.6307 148.433 66.5043 149.024 66.2514 149.53C65.9986 150.036 65.6435 150.429 65.1861 150.71C64.7287 150.991 64.1932 151.132 63.5796 151.132ZM63.5838 150.062C63.9816 150.062 64.3111 149.957 64.5725 149.747C64.8338 149.537 65.027 149.257 65.152 148.908C65.2799 148.558 65.3438 148.173 65.3438 147.753C65.3438 147.335 65.2799 146.952 65.152 146.602C65.027 146.25 64.8338 145.967 64.5725 145.754C64.3111 145.541 63.9816 145.435 63.5838 145.435C63.1833 145.435 62.8509 145.541 62.5867 145.754C62.3253 145.967 62.1307 146.25 62.0029 146.602C61.8779 146.952 61.8154 147.335 61.8154 147.753C61.8154 148.173 61.8779 148.558 62.0029 148.908C62.1307 149.257 62.3253 149.537 62.5867 149.747C62.8509 149.957 63.1833 150.062 63.5838 150.062ZM67.9329 151V144.455H69.1645V145.494H69.2327C69.352 145.142 69.5622 144.865 69.8633 144.663C70.1673 144.459 70.5111 144.357 70.8946 144.357C70.9741 144.357 71.0679 144.359 71.1758 144.365C71.2866 144.371 71.3733 144.378 71.4358 144.386V145.605C71.3846 145.591 71.2937 145.575 71.1631 145.558C71.0324 145.538 70.9017 145.528 70.771 145.528C70.4699 145.528 70.2014 145.592 69.9656 145.72C69.7327 145.845 69.548 146.02 69.4116 146.244C69.2753 146.466 69.2071 146.719 69.2071 147.003V151H67.9329ZM74.6343 151.128C74.1059 151.128 73.6343 150.993 73.2195 150.723C72.8076 150.45 72.4837 150.062 72.248 149.56C72.015 149.054 71.8985 148.447 71.8985 147.74C71.8985 147.033 72.0164 146.428 72.2522 145.925C72.4909 145.422 72.8176 145.037 73.2323 144.77C73.6471 144.503 74.1173 144.369 74.6428 144.369C75.0491 144.369 75.3758 144.438 75.623 144.574C75.873 144.707 76.0661 144.864 76.2025 145.043C76.3417 145.222 76.4497 145.379 76.5264 145.516H76.6031V142.273H77.8772V151H76.6329V149.982H76.5264C76.4497 150.121 76.3389 150.28 76.194 150.459C76.0519 150.638 75.8559 150.794 75.6059 150.928C75.3559 151.061 75.032 151.128 74.6343 151.128ZM74.9156 150.041C75.282 150.041 75.5917 149.945 75.8445 149.751C76.1002 149.555 76.2934 149.284 76.4241 148.938C76.5576 148.591 76.6244 148.187 76.6244 147.727C76.6244 147.273 76.559 146.875 76.4284 146.534C76.2977 146.193 76.1059 145.928 75.8531 145.737C75.6002 145.547 75.2877 145.452 74.9156 145.452C74.532 145.452 74.2124 145.551 73.9568 145.75C73.7011 145.949 73.5079 146.22 73.3772 146.564C73.2494 146.908 73.1855 147.295 73.1855 147.727C73.1855 148.165 73.2508 148.558 73.3815 148.908C73.5122 149.257 73.7053 149.534 73.961 149.739C74.2195 149.94 74.5377 150.041 74.9156 150.041ZM84.4806 146.053L83.3258 146.257C83.2775 146.109 83.2008 145.969 83.0956 145.835C82.9934 145.702 82.8542 145.592 82.678 145.507C82.5019 145.422 82.2817 145.379 82.0175 145.379C81.6567 145.379 81.3556 145.46 81.1141 145.622C80.8726 145.781 80.7519 145.987 80.7519 146.24C80.7519 146.459 80.8329 146.635 80.9948 146.768C81.1567 146.902 81.4181 147.011 81.7789 147.097L82.8187 147.335C83.4209 147.474 83.8698 147.689 84.1652 147.979C84.4607 148.268 84.6084 148.645 84.6084 149.108C84.6084 149.5 84.4948 149.849 84.2675 150.156C84.0431 150.46 83.7292 150.699 83.3258 150.872C82.9252 151.045 82.4607 151.132 81.9323 151.132C81.1993 151.132 80.6013 150.976 80.1383 150.663C79.6752 150.348 79.3911 149.901 79.286 149.321L80.5175 149.134C80.5942 149.455 80.7519 149.697 80.9905 149.862C81.2292 150.024 81.5402 150.105 81.9238 150.105C82.3414 150.105 82.6752 150.018 82.9252 149.845C83.1752 149.669 83.3002 149.455 83.3002 149.202C83.3002 148.997 83.2235 148.825 83.0701 148.686C82.9195 148.547 82.688 148.442 82.3755 148.371L81.2675 148.128C80.6567 147.989 80.205 147.767 79.9124 147.463C79.6226 147.159 79.4777 146.774 79.4777 146.308C79.4777 145.922 79.5857 145.584 79.8016 145.294C80.0175 145.004 80.3158 144.778 80.6965 144.616C81.0772 144.452 81.5133 144.369 82.0047 144.369C82.7121 144.369 83.2689 144.523 83.6752 144.83C84.0814 145.134 84.3499 145.541 84.4806 146.053Z" fill="#8A8C91"/><defs><filter id="filter0_dd_24704_5617" x="218" y="131" width="34" height="35" filterUnits="userSpaceOnUse" color-interpolation-filters="sRGB"><feFlood flood-opacity="0" result="BackgroundImageFix"/><feColorMatrix in="SourceAlpha" type="matrix" values="0 0 0 0 0 0 0 0 0 0 0 0 0 0 0 0 0 0 127 0" result="hardAlpha"/><feOffset dy="2"/><feGaussianBlur stdDeviation="1.5"/><feColorMatrix type="matrix" values="0 0 0 0 0 0 0 0 0 0 0 0 0 0 0 0 0 0 0.1 0"/><feBlend mode="normal" in2="BackgroundImageFix" result="effect1_dropShadow_24704_5617"/><feColorMatrix in="SourceAlpha" type="matrix" values="0 0 0 0 0 0 0 0 0 0 0 0 0 0 0 0 0 0 127 0" result="hardAlpha"/><feMorphology radius="1" operator="dilate" in="SourceAlpha" result="effect2_dropShadow_24704_5617"/><feOffset/><feGaussianBlur stdDeviation="0.5"/><feColorMatrix type="matrix" values="0 0 0 0 0 0 0 0 0 0 0 0 0 0 0 0 0 0 0.1 0"/><feBlend mode="normal" in2="effect1_dropShadow_24704_5617" result="effect2_dropShadow_24704_5617"/><feBlend mode="normal" in="SourceGraphic" in2="effect2_dropShadow_24704_5617" result="shape"/></filter></defs></svg>