<svg width="406" height="228" viewBox="0 0 406 228" fill="none" xmlns="http://www.w3.org/2000/svg"><path d="M0 15C0 6.71573 6.71573 0 15 0H391C399.284 0 406 6.71573 406 15V213C406 221.284 399.284 228 391 228H15C6.71573 228 0 221.284 0 213V15Z" fill="#44474E"/><path d="M37 54C37 45.7157 43.7157 39 52 39H354C362.284 39 369 45.7157 369 54V174C369 182.284 362.284 189 354 189H52C43.7157 189 37 182.284 37 174V54Z" fill="white"/><rect width="32" height="32" transform="translate(80 59)" fill="white"/><path fill-rule="evenodd" clip-rule="evenodd" d="M100.265 81.0217C100.512 81.1503 100.833 81.1382 101.054 80.9468L101.063 80.9539C101.729 80.385 102.944 79.3768 103.63 78.8292C103.902 78.6177 103.857 78.2705 103.641 77.9799C103.574 77.8916 103.507 77.805 103.44 77.719C102.895 77.0175 102.378 76.3504 102.378 75.0151V70.0317C102.378 69.862 102.379 69.6934 102.38 69.526C102.391 67.6115 102.401 65.8639 100.903 64.5271C99.6199 63.3489 97.4905 62.9338 95.8621 62.9338C92.6774 62.9338 89.122 64.0696 88.3761 67.8311C88.2956 68.2299 88.6018 68.4425 88.8762 68.4992L92.1191 68.8363C92.4242 68.8211 92.6435 68.5356 92.7007 68.2471C92.9794 66.9525 94.1151 66.3269 95.3917 66.3269C96.0814 66.3269 96.8643 66.5709 97.2722 67.1569C97.6922 67.7475 97.6855 68.5302 97.6794 69.2345C97.6787 69.3172 97.678 69.3989 97.678 69.4791V69.8941C97.381 69.9257 97.0701 69.9557 96.7499 69.9866C94.9775 70.1576 92.9217 70.356 91.3828 71.0025C89.2862 71.868 87.8125 73.6333 87.8125 76.2298C87.8125 79.554 90.0066 81.2151 92.8247 81.2151C95.2053 81.2151 96.5063 80.6786 98.3433 78.8899C98.4392 79.022 98.525 79.1434 98.6056 79.2577C99.0382 79.8704 99.3258 80.2778 100.265 81.0217ZM97.6792 73.3075C97.6791 73.2545 97.679 73.2012 97.679 73.1475H97.6801V72.4541C95.2593 72.4541 92.7007 72.9501 92.7007 75.6751C92.7007 77.0598 93.4508 77.9951 94.737 77.9951C95.6746 77.9951 96.5211 77.4414 97.0529 76.5395C97.6815 75.4789 97.6804 74.484 97.6792 73.3075Z" fill="#151922"/><path fill-rule="evenodd" clip-rule="evenodd" d="M105.68 85.4171C105.464 85.5936 105.26 85.4987 105.355 85.2671C105.67 84.5008 106.377 82.7825 106.042 82.3642C105.711 81.9482 103.854 82.1638 103.004 82.2625L102.989 82.2642C102.734 82.2948 102.694 82.0775 102.924 81.9203C104.421 80.8969 106.874 81.1928 107.159 81.5356C107.446 81.8805 107.083 84.2743 105.68 85.4171ZM95.7935 85.2314C98.6421 85.2314 101.773 84.508 104.653 83.006C105.088 82.7795 105.452 83.3591 105.027 83.7437C102.457 86.0702 98.7333 87.3089 95.5252 87.3089C91.029 87.3089 86.9824 85.2681 83.9169 81.8744C83.6758 81.6071 83.8896 81.2439 84.1799 81.45C87.4855 83.8101 91.5729 85.2314 95.7935 85.2314Z" fill="#FF9A00"/><rect width="32" height="32" transform="translate(80 99)" fill="white"/><path d="M105.617 121.483C105.239 122.356 104.791 123.16 104.273 123.899C103.566 124.907 102.987 125.604 102.541 125.992C101.85 126.627 101.109 126.953 100.316 126.972C99.7464 126.972 99.0597 126.81 98.2604 126.481C97.4584 126.154 96.7214 125.992 96.0475 125.992C95.3407 125.992 94.5827 126.154 93.7719 126.481C92.9599 126.81 92.3058 126.981 91.8056 126.998C91.045 127.03 90.2869 126.695 89.5301 125.992C89.0471 125.57 88.4429 124.848 87.7192 123.825C86.9427 122.733 86.3043 121.466 85.8041 120.021C85.2685 118.461 85 116.95 85 115.488C85 113.812 85.362 112.367 86.0872 111.156C86.657 110.184 87.4152 109.416 88.3641 108.853C89.313 108.29 90.3382 108.003 91.4424 107.985C92.0465 107.985 92.8388 108.171 93.8233 108.539C94.8051 108.907 95.4355 109.094 95.7118 109.094C95.9185 109.094 96.6187 108.876 97.8059 108.44C98.9285 108.036 99.876 107.869 100.652 107.935C102.756 108.104 104.336 108.933 105.387 110.427C103.506 111.567 102.575 113.163 102.594 115.211C102.611 116.806 103.189 118.134 104.327 119.188C104.842 119.677 105.418 120.055 106.058 120.324C105.919 120.726 105.772 121.112 105.617 121.483ZM100.793 102.5C100.793 103.75 100.336 104.918 99.4254 105.998C98.3267 107.283 96.9977 108.025 95.5566 107.908C95.5382 107.758 95.5276 107.6 95.5276 107.434C95.5276 106.234 96.0501 104.949 96.978 103.899C97.4412 103.367 98.0304 102.925 98.7449 102.573C99.4578 102.225 100.132 102.033 100.766 102C100.785 102.167 100.793 102.334 100.793 102.5V102.5Z" fill="#383C43"/><path d="M81 160.416C81 160.789 81.135 161.07 81.4048 161.261C81.6747 161.452 81.9632 161.519 82.2704 161.463C82.5589 161.407 82.7613 161.305 82.8776 161.156C82.994 161.007 83.0521 160.761 83.0521 160.416V156.368C83.0521 156.079 82.9521 155.835 82.752 155.635C82.5519 155.435 82.3076 155.335 82.0191 155.335C81.7399 155.335 81.5003 155.435 81.3002 155.635C81.1001 155.835 81 156.079 81 156.368V160.416ZM84.2108 162.147C84.2108 162.417 84.3062 162.62 84.497 162.755C84.6878 162.89 84.9321 162.957 85.2299 162.957C85.537 162.957 85.7859 162.89 85.9767 162.755C86.1675 162.62 86.2629 162.417 86.2629 162.147V152.71C86.2629 152.431 86.1628 152.192 85.9628 151.991C85.7627 151.791 85.5184 151.691 85.2299 151.691C84.9507 151.691 84.711 151.791 84.5109 151.991C84.3108 152.192 84.2108 152.431 84.2108 152.71V162.147ZM87.4076 162.594C87.4076 162.864 87.5054 163.066 87.7008 163.201C87.8962 163.336 88.1475 163.404 88.4547 163.404C88.7525 163.404 88.9968 163.336 89.1875 163.201C89.3783 163.066 89.4737 162.864 89.4737 162.594V150.981C89.4737 150.692 89.3737 150.446 89.1736 150.241C88.9735 150.036 88.7339 149.934 88.4547 149.934C88.1661 149.934 87.9195 150.036 87.7148 150.241C87.51 150.446 87.4077 150.692 87.4077 150.981L87.4076 162.594ZM90.6184 162.636C90.6184 163.148 90.9628 163.404 91.6515 163.404C92.3402 163.404 92.6845 163.148 92.6845 162.636V148.676C92.6845 147.894 92.4472 147.452 91.9725 147.35C91.6654 147.275 91.3629 147.364 91.0651 147.615C90.7673 147.866 90.6184 148.22 90.6184 148.676L90.6184 162.636ZM93.8851 163.041V147.852C93.8851 147.368 94.0293 147.08 94.3179 146.987C94.9414 146.838 95.5603 146.763 96.1745 146.763C97.5984 146.763 98.9247 147.098 100.153 147.769C101.382 148.439 102.375 149.353 103.134 150.512C103.892 151.67 104.332 152.948 104.453 154.344C105.02 154.102 105.625 153.981 106.268 153.981C107.57 153.981 108.685 154.441 109.611 155.363C110.537 156.284 111 157.392 111 158.685C111 159.988 110.537 161.1 109.611 162.022C108.685 162.943 107.575 163.404 106.282 163.404L94.1363 163.39C94.0525 163.362 93.9897 163.311 93.9478 163.236C93.906 163.162 93.8851 163.097 93.8851 163.041Z" fill="url(#paint0_linear_24704_5619)"/><rect x="124" y="59" width="183" height="27" rx="13.5" fill="#F8F8F8"/><rect x="124" y="100" width="183" height="27" rx="13.5" fill="#F8F8F8"/><rect x="124" y="141" width="183" height="27" rx="13.5" fill="#F8F8F8"/><circle cx="138.666" cy="72.8536" r="4.85356" fill="black"/><circle cx="151.4" cy="72.854" r="4.85356" fill="black"/><circle cx="164.135" cy="72.854" r="4.85356" fill="black"/><circle cx="176.869" cy="72.854" r="4.85356" fill="black"/><circle cx="189.604" cy="72.854" r="4.85356" fill="black"/><circle cx="202.338" cy="72.8543" r="4.85356" fill="black"/><circle cx="138.666" cy="113.854" r="4.85356" fill="black"/><circle cx="151.4" cy="113.854" r="4.85356" fill="black"/><circle cx="164.135" cy="113.854" r="4.85356" fill="black"/><circle cx="176.869" cy="113.854" r="4.85356" fill="black"/><circle cx="189.604" cy="113.854" r="4.85356" fill="black"/><circle cx="202.338" cy="113.854" r="4.85356" fill="black"/><circle cx="138.666" cy="154.854" r="4.85356" fill="black"/><circle cx="151.4" cy="154.854" r="4.85356" fill="black"/><circle cx="164.135" cy="154.854" r="4.85356" fill="black"/><circle cx="176.869" cy="154.854" r="4.85356" fill="black"/><circle cx="189.604" cy="154.854" r="4.85356" fill="black"/><circle cx="202.338" cy="154.854" r="4.85356" fill="black"/><circle cx="214.854" cy="72.8536" r="4.85356" fill="black"/><circle cx="227.588" cy="72.854" r="4.85356" fill="black"/><circle cx="240.322" cy="72.854" r="4.85356" fill="black"/><circle cx="253.057" cy="72.854" r="4.85356" fill="black"/><circle cx="265.791" cy="72.854" r="4.85356" fill="black"/><circle cx="278.525" cy="72.8545" r="4.85356" fill="black"/><circle cx="290.854" cy="72.8536" r="4.85356" fill="black"/><circle cx="214.854" cy="113.854" r="4.85356" fill="black"/><circle cx="227.588" cy="113.854" r="4.85356" fill="black"/><circle cx="240.322" cy="113.854" r="4.85356" fill="black"/><circle cx="253.057" cy="113.854" r="4.85356" fill="black"/><circle cx="265.791" cy="113.854" r="4.85356" fill="black"/><circle cx="278.525" cy="113.855" r="4.85356" fill="black"/><circle cx="290.854" cy="113.854" r="4.85356" fill="black"/><circle cx="214.854" cy="154.854" r="4.85356" fill="black"/><circle cx="227.588" cy="154.854" r="4.85356" fill="black"/><circle cx="240.322" cy="154.854" r="4.85356" fill="black"/><circle cx="253.057" cy="154.854" r="4.85356" fill="black"/><circle cx="265.791" cy="154.854" r="4.85356" fill="black"/><circle cx="278.525" cy="154.855" r="4.85356" fill="black"/><circle cx="290.854" cy="154.854" r="4.85356" fill="black"/><rect x="322" y="59" width="3" height="114" rx="1.5" fill="#F8F8F8"/><rect x="322" y="59" width="3" height="16" rx="1.5" fill="#B9BABD"/><defs><linearGradient id="paint0_linear_24704_5619" x1="96.0321" y1="147.216" x2="96.0321" y2="163.072" gradientUnits="userSpaceOnUse"><stop stop-color="#FF8800"/><stop offset="1" stop-color="#FF3300"/></linearGradient></defs></svg>